<svg width="336" height="238" viewBox="0 0 336 238" fill="none" xmlns="http://www.w3.org/2000/svg">
<g style="mix-blend-mode:soft-light">
<path d="M283.432 210.929C284.935 210.929 286.343 210.376 287.501 209.331L288.57 208.369L289.313 209.598C290.121 210.935 291.41 211.701 292.841 211.701C296.934 211.701 298.603 208.321 299.013 207.282C300.415 203.759 300.671 200.801 299.839 197.694C298.568 193.477 295.734 190.043 291.861 188.006C289.497 186.758 286.925 186.128 284.329 186.128C282.672 186.128 281.009 186.384 279.381 186.901C271.154 189.52 266.425 198.11 268.617 206.462C270.441 213.388 276.702 218.366 283.854 218.562C284.365 218.562 284.763 218.182 284.781 217.689C284.792 217.196 284.4 216.78 283.907 216.762C277.551 216.584 271.985 212.159 270.364 206.004C268.409 198.585 272.615 190.946 279.927 188.617C283.634 187.435 287.567 187.786 291.006 189.586C294.445 191.392 296.964 194.433 298.093 198.146C298.817 200.884 298.58 203.486 297.338 206.61C297.029 207.383 295.8 209.895 292.841 209.895C292.283 209.895 291.701 209.628 291.238 209.159C290.685 208.606 290.382 207.84 290.388 207.008L290.412 202.452C290.412 202.327 290.412 202.226 290.412 202.131V201.953L290.448 194.968C290.448 194.73 290.358 194.498 290.186 194.332C290.02 194.16 289.794 194.065 289.551 194.065C289.236 194.065 288.951 194.225 288.784 194.486L288.125 195.538L287.103 194.831C286.076 194.118 284.893 193.762 283.592 193.762C279.494 193.762 276.286 197.456 276.286 202.179C276.286 206.901 279.494 210.923 283.432 210.923V210.929ZM283.592 195.573C285.957 195.573 288.529 197.563 288.612 201.935V202.434C288.487 206.634 285.879 209.129 283.432 209.129C280.86 209.129 278.086 206.474 278.086 202.185C278.086 197.896 280.884 195.567 283.592 195.567V195.573Z" fill="white"/>
<path d="M308.013 177.503H260.396C259.897 177.503 259.493 177.907 259.493 178.406V201.983L252.05 209.426C250.565 210.911 249.745 212.883 249.745 214.986V241.337C249.745 244.135 252.02 246.416 254.824 246.416H313.579C316.377 246.416 318.658 244.141 318.658 241.337V214.986C318.658 212.883 317.838 210.911 316.353 209.426L308.91 201.983V178.406C308.91 177.907 308.506 177.503 308.007 177.503H308.013ZM261.299 179.303H307.11V216.816L284.204 229.171L261.299 216.816V179.303ZM253.333 210.685L259.499 204.519V215.842L252.181 211.891L253.339 210.679L253.333 210.685ZM316.858 213.602V241.331C316.858 243.137 315.391 244.61 313.579 244.61H254.824C253.018 244.61 251.545 243.143 251.545 241.331V213.602L259.861 218.099C259.927 218.146 259.998 218.188 260.075 218.218L260.224 218.283L283.777 230.983C284.044 231.126 284.365 231.126 284.632 230.983L308.334 218.212C308.405 218.182 308.476 218.146 308.547 218.099L308.684 218.016L316.864 213.602H316.858ZM316.246 211.885L308.916 215.842V204.519L316.246 211.885Z" fill="white"/>
<path d="M286.045 284.481C326.05 284.481 358.481 252.05 358.481 212.046C358.481 172.041 326.05 139.611 286.045 139.611C246.041 139.611 213.61 172.041 213.61 212.046C213.61 252.05 246.041 284.481 286.045 284.481Z" stroke="white" stroke-miterlimit="10"/>
<path opacity="0.97" d="M283.527 286.328C325.943 286.328 360.328 251.943 360.328 209.527C360.328 167.111 325.943 132.726 283.527 132.726C241.111 132.726 206.726 167.111 206.726 209.527C206.726 251.943 241.111 286.328 283.527 286.328Z" stroke="white" stroke-miterlimit="10"/>
<path opacity="0.94" d="M281.014 288.176C325.839 288.176 362.176 251.838 362.176 207.014C362.176 162.19 325.839 125.853 281.014 125.853C236.19 125.853 199.853 162.19 199.853 207.014C199.853 251.838 236.19 288.176 281.014 288.176Z" stroke="white" stroke-miterlimit="10"/>
<path opacity="0.9" d="M278.496 290.023C325.731 290.023 364.023 251.731 364.023 204.496C364.023 157.26 325.731 118.968 278.496 118.968C231.26 118.968 192.968 157.26 192.968 204.496C192.968 251.731 231.26 290.023 278.496 290.023Z" stroke="white" stroke-miterlimit="10"/>
<path opacity="0.87" d="M275.977 291.87C325.624 291.87 365.87 251.624 365.87 201.977C365.87 152.33 325.624 112.083 275.977 112.083C226.33 112.083 186.083 152.33 186.083 201.977C186.083 251.624 226.33 291.87 275.977 291.87Z" stroke="white" stroke-miterlimit="10"/>
<path opacity="0.84" d="M273.458 293.712C325.513 293.712 367.712 251.513 367.712 199.458C367.712 147.403 325.513 105.205 273.458 105.205C221.403 105.205 179.205 147.403 179.205 199.458C179.205 251.513 221.403 293.712 273.458 293.712Z" stroke="white" stroke-miterlimit="10"/>
<path opacity="0.81" d="M270.939 295.559C325.406 295.559 369.559 251.406 369.559 196.94C369.559 142.474 325.406 98.32 270.939 98.32C216.473 98.32 172.32 142.474 172.32 196.94C172.32 251.406 216.473 295.559 270.939 295.559Z" stroke="white" stroke-miterlimit="10"/>
<path opacity="0.77" d="M268.421 297.401C325.295 297.401 371.4 251.295 371.4 194.421C371.4 137.547 325.295 91.4413 268.421 91.4413C211.547 91.4413 165.441 137.547 165.441 194.421C165.441 251.295 211.547 297.401 268.421 297.401Z" stroke="white" stroke-miterlimit="10"/>
<path opacity="0.74" d="M265.908 299.254C325.194 299.254 373.254 251.194 373.254 191.908C373.254 132.623 325.194 84.5624 265.908 84.5624C206.623 84.5624 158.562 132.623 158.562 191.908C158.562 251.194 206.623 299.254 265.908 299.254Z" stroke="white" stroke-miterlimit="10"/>
<path opacity="0.71" d="M263.39 301.096C325.083 301.096 375.096 251.083 375.096 189.39C375.096 127.696 325.083 77.6837 263.39 77.6837C201.696 77.6837 151.684 127.696 151.684 189.39C151.684 251.083 201.696 301.096 263.39 301.096Z" stroke="white" stroke-miterlimit="10"/>
<path opacity="0.68" d="M260.871 302.943C324.976 302.943 376.943 250.976 376.943 186.871C376.943 122.766 324.976 70.799 260.871 70.799C196.766 70.799 144.799 122.766 144.799 186.871C144.799 250.976 196.766 302.943 260.871 302.943Z" stroke="white" stroke-miterlimit="10"/>
<path opacity="0.65" d="M258.352 304.784C324.865 304.784 378.784 250.865 378.784 184.352C378.784 117.839 324.865 63.9202 258.352 63.9202C191.839 63.9202 137.92 117.839 137.92 184.352C137.92 250.865 191.839 304.784 258.352 304.784Z" stroke="white" stroke-miterlimit="10"/>
<path opacity="0.61" d="M255.833 306.632C324.758 306.632 380.632 250.758 380.632 181.834C380.632 112.91 324.758 57.0355 255.833 57.0355C186.909 57.0355 131.035 112.91 131.035 181.834C131.035 250.758 186.909 306.632 255.833 306.632Z" stroke="white" stroke-miterlimit="10"/>
<path opacity="0.58" d="M253.315 308.473C324.647 308.473 382.473 250.647 382.473 179.315C382.473 107.983 324.647 50.1566 253.315 50.1566C181.983 50.1566 124.157 107.983 124.157 179.315C124.157 250.647 181.983 308.473 253.315 308.473Z" stroke="white" stroke-miterlimit="10"/>
<path opacity="0.55" d="M250.802 310.327C324.546 310.327 384.327 250.546 384.327 176.802C384.327 103.059 324.546 43.2779 250.802 43.2779C177.059 43.2779 117.278 103.059 117.278 176.802C117.278 250.546 177.059 310.327 250.802 310.327Z" stroke="white" stroke-miterlimit="10"/>
<path opacity="0.52" d="M248.284 312.174C324.438 312.174 386.174 250.438 386.174 174.284C386.174 98.1289 324.438 36.3932 248.284 36.3932C172.129 36.3932 110.393 98.1289 110.393 174.284C110.393 250.438 172.129 312.174 248.284 312.174Z" stroke="white" stroke-miterlimit="10"/>
<path opacity="0.48" d="M245.765 314.016C324.328 314.016 388.015 250.328 388.015 171.765C388.015 93.2021 324.328 29.5143 245.765 29.5143C167.202 29.5143 103.514 93.2021 103.514 171.765C103.514 250.328 167.202 314.016 245.765 314.016Z" stroke="white" stroke-miterlimit="10"/>
<path opacity="0.45" d="M243.246 315.863C324.22 315.863 389.863 250.22 389.863 169.246C389.863 88.2721 324.22 22.6296 243.246 22.6296C162.272 22.6296 96.6294 88.2721 96.6294 169.246C96.6294 250.22 162.272 315.863 243.246 315.863Z" stroke="white" stroke-miterlimit="10"/>
<path opacity="0.42" d="M240.728 317.704C324.11 317.704 391.705 250.11 391.705 166.728C391.705 83.3455 324.11 15.7509 240.728 15.7509C157.346 15.7509 89.751 83.3455 89.751 166.728C89.751 250.11 157.346 317.704 240.728 317.704Z" stroke="white" stroke-miterlimit="10"/>
<path opacity="0.39" d="M238.209 319.552C324.003 319.552 393.552 250.003 393.552 164.209C393.552 78.4155 324.003 8.86615 238.209 8.86615C152.416 8.86615 82.8662 78.4155 82.8662 164.209C82.8662 250.003 152.416 319.552 238.209 319.552Z" stroke="white" stroke-miterlimit="10"/>
<path opacity="0.35" d="M235.696 321.399C323.898 321.399 395.399 249.898 395.399 161.696C395.399 73.4948 323.898 1.99329 235.696 1.99329C147.495 1.99329 75.9932 73.4948 75.9932 161.696C75.9932 249.898 147.495 321.399 235.696 321.399Z" stroke="white" stroke-miterlimit="10"/>
<path opacity="0.32" d="M233.177 323.247C323.79 323.247 397.247 249.79 397.247 159.178C397.247 68.5648 323.79 -4.89142 233.177 -4.89142C142.565 -4.89142 69.1084 68.5648 69.1084 159.178C69.1084 249.79 142.565 323.247 233.177 323.247Z" stroke="white" stroke-miterlimit="10"/>
<path opacity="0.29" d="M230.659 325.088C323.68 325.088 399.088 249.68 399.088 156.659C399.088 63.6381 323.68 -11.7702 230.659 -11.7702C137.638 -11.7702 62.2295 63.6381 62.2295 156.659C62.2295 249.68 137.638 325.088 230.659 325.088Z" stroke="white" stroke-miterlimit="10"/>
<path opacity="0.26" d="M228.14 326.936C323.572 326.936 400.935 249.573 400.935 154.14C400.935 58.7082 323.572 -18.6549 228.14 -18.6549C132.708 -18.6549 55.3447 58.7082 55.3447 154.14C55.3447 249.573 132.708 326.936 228.14 326.936Z" stroke="white" stroke-miterlimit="10"/>
<path opacity="0.23" d="M225.622 328.777C323.462 328.777 402.777 249.462 402.777 151.622C402.777 53.7815 323.462 -25.5337 225.622 -25.5337C127.781 -25.5337 48.4663 53.7815 48.4663 151.622C48.4663 249.462 127.781 328.777 225.622 328.777Z" stroke="white" stroke-miterlimit="10"/>
<path opacity="0.19" d="M223.103 330.624C323.354 330.624 404.624 249.354 404.624 149.103C404.624 48.8514 323.354 -32.4185 223.103 -32.4185C122.851 -32.4185 41.5815 48.8514 41.5815 149.103C41.5815 249.354 122.851 330.624 223.103 330.624Z" stroke="white" stroke-miterlimit="10"/>
<path opacity="0.16" d="M220.59 332.478C323.253 332.478 406.478 249.253 406.478 146.59C406.478 43.9274 323.253 -39.2972 220.59 -39.2972C117.927 -39.2972 34.7026 43.9274 34.7026 146.59C34.7026 249.253 117.927 332.478 220.59 332.478Z" stroke="white" stroke-miterlimit="10"/>
<path opacity="0.13" d="M218.071 334.319C323.142 334.319 408.319 249.143 408.319 144.072C408.319 39.0008 323.142 -46.176 218.071 -46.176C113 -46.176 27.8237 39.0008 27.8237 144.072C27.8237 249.143 113 334.319 218.071 334.319Z" stroke="white" stroke-miterlimit="10"/>
<path opacity="0.1" d="M215.553 336.167C323.035 336.167 410.166 249.035 410.166 141.553C410.166 34.0708 323.035 -53.0607 215.553 -53.0607C108.07 -53.0607 20.939 34.0708 20.939 141.553C20.939 249.035 108.07 336.167 215.553 336.167Z" stroke="white" stroke-miterlimit="10"/>
<path opacity="0.06" d="M213.034 338.008C322.925 338.008 412.008 248.925 412.008 139.034C412.008 29.1441 322.925 -59.9395 213.034 -59.9395C103.144 -59.9395 14.0605 29.1441 14.0605 139.034C14.0605 248.925 103.144 338.008 213.034 338.008Z" stroke="white" stroke-miterlimit="10"/>
<path opacity="0.03" d="M210.516 339.856C322.817 339.856 413.856 248.817 413.856 136.516C413.856 24.2142 322.817 -66.8242 210.516 -66.8242C98.2142 -66.8242 7.17578 24.2142 7.17578 136.516C7.17578 248.817 98.2142 339.856 210.516 339.856Z" stroke="white" stroke-miterlimit="10"/>
</g>
</svg>
