<svg width="57" height="55" viewBox="0 0 57 55" fill="none" xmlns="http://www.w3.org/2000/svg">
<path fill-rule="evenodd" clip-rule="evenodd" d="M9.80308 7.16724C12.5938 7.16724 14.8562 9.44308 14.8562 12.2505C14.8562 15.0579 12.5938 17.3337 9.80308 17.3337C7.01234 17.3337 4.75 15.0579 4.75 12.2505C4.75 9.44308 7.01234 7.16724 9.80308 7.16724ZM52.25 31.5664C52.25 40.5501 45.0105 47.8328 36.8501 47.8328C27.1498 47.8328 19.9103 40.5501 19.9103 31.5664C19.9103 22.5828 27.1498 15.3001 36.8501 15.3001C45.0105 15.3001 52.25 22.5828 52.25 31.5664ZM13.8477 26.4827C13.8477 24.2367 12.0378 22.4161 9.80521 22.4161C7.57262 22.4161 5.76275 24.2367 5.76275 26.4827V43.7657C5.76275 46.0116 7.57262 47.8323 9.80521 47.8323C12.0378 47.8323 13.8477 46.0116 13.8477 43.7657V26.4827ZM40.0533 29.8593H42.206V27.7284H40.0688V25.1515H37.7303V33.7246C37.7303 35.0791 37.9161 36.0042 38.3033 36.4997C38.675 37.0118 39.3874 37.2596 40.4405 37.2596C40.8432 37.2596 41.4472 37.1605 42.2215 36.9788L42.1131 34.9965L40.7812 35.0296C40.5489 35.0296 40.3786 34.98 40.2702 34.8644C40.1617 34.7488 40.0998 34.6166 40.0843 34.4679C40.0688 34.3028 40.0533 34.055 40.0533 33.6751V29.8593ZM33.0028 27.7441V37.0441H35.3414V27.7441H33.0028ZM29.497 27.5138C29.9057 27.5138 30.2516 27.6522 30.5188 27.9292C30.7861 28.2062 30.9118 28.5447 30.9118 28.9601C30.9118 29.3756 30.7861 29.6987 30.5188 29.9757C30.2673 30.2219 29.9371 30.3604 29.5127 30.3604C29.1039 30.3604 28.7581 30.2219 28.4908 29.9449C28.2236 29.6679 28.0821 29.3294 28.0821 28.9294C28.0821 28.5293 28.2236 28.1908 28.4751 27.9138C28.7424 27.6368 29.0882 27.5138 29.497 27.5138Z" fill="#0B3EE3"/>
</svg>
