<svg width="59" height="20" viewBox="0 0 59 20" fill="none" xmlns="http://www.w3.org/2000/svg">
<path fill-rule="evenodd" clip-rule="evenodd" d="M6.1007 7.46597C6.85332 7.52724 7.66863 7.59361 8.46075 7.83965C10.4521 8.45895 11.6472 10.0173 11.6472 12.2198C11.6472 15.292 9.36798 17.5397 5.89416 17.5397C2.55314 17.5397 0.074707 15.4302 0.074707 12.3112H2.71048C2.71048 13.8707 4.08249 14.9023 5.94103 14.9023C7.86597 14.9023 9.01647 13.8256 9.01647 12.38C9.01647 11.371 8.41946 10.7523 7.64446 10.4539C7.06757 10.2309 6.33444 10.164 5.56338 10.0937C4.82652 10.0264 4.05501 9.956 3.35212 9.74323C1.31671 9.12393 0.210289 7.4956 0.210289 5.43185C0.210289 2.47414 2.48953 0.295898 5.78648 0.295898C9.01647 0.295898 11.4062 2.33652 11.4062 5.29481H8.75144C8.68449 3.87291 7.48991 2.93268 5.76416 2.93268C3.99098 2.93268 2.8628 3.96485 2.8628 5.29481C2.8628 6.16622 3.34934 6.8312 4.19017 7.15212C4.71985 7.35356 5.38167 7.40744 6.1007 7.46597ZM45.4051 0.548018H50.6046C55.2953 0.548018 58.681 4.19384 58.681 8.94063C58.681 13.6874 55.2953 17.2876 50.6046 17.2876H49.4207V19.97L45.5434 15.946L49.4207 11.9255V14.6045H50.5606C53.7465 14.6045 56.0257 12.151 56.0257 8.94063C56.0257 5.68455 53.7465 3.23107 50.5606 3.23107H48.0598V9.04818L45.4051 11.833V0.548018ZM14.4119 17.2876H26.7365V14.6045H17.0454V10.2243H22.51V7.54186H17.0454V3.23049H26.7365V0.548018H14.4119V17.2876ZM32.3339 0.548018L39.8345 12.472V0.548018H42.4675V17.2876H39.8345L32.3339 5.36362V17.2876H29.7004V0.548018H32.3339Z" fill="#0B3EE3"/>
</svg>
