<svg width="32" height="32" viewBox="0 0 32 32" fill="none" xmlns="http://www.w3.org/2000/svg">
<g clip-path="url(#clip0)">
<path d="M32 12H26V14H32V12Z" fill="#ffffff"/>
<path d="M29.0907 3.13442L23.8942 6.13379L24.894 7.86596L30.0905 4.8666L29.0907 3.13442Z" fill="#ffffff"/>
<path d="M24.8926 18.135L23.8926 19.8671L29.0887 22.8672L30.0887 21.1351L24.8926 18.135Z" fill="#ffffff"/>
<path d="M21.462 1.11301C21.2998 1.02848 21.1176 0.990032 20.9351 1.00184C20.7527 1.01366 20.5769 1.07528 20.427 1.18001L10.685 8.00001H5.5C4.04131 8.00001 2.64236 8.57948 1.61091 9.61093C0.579463 10.6424 0 12.0413 0 13.5C0 14.9587 0.579463 16.3577 1.61091 17.3891C2.64236 18.4206 4.04131 19 5.5 19H10.685L20.427 25.819C20.5768 25.9238 20.7525 25.9855 20.935 25.9973C21.1174 26.0092 21.2996 25.9709 21.4618 25.8864C21.624 25.802 21.7599 25.6747 21.8548 25.5184C21.9497 25.3622 21.9999 25.1828 22 25V2.00001C22 1.8171 21.9499 1.63769 21.855 1.48129C21.7602 1.3249 21.6242 1.19752 21.462 1.11301Z" fill="#ffffff"/>
<path d="M10.726 21H5.85303L9.80003 29.746C9.91248 30.0159 10.0778 30.2605 10.2863 30.4655C10.4947 30.6705 10.7421 30.8317 11.0138 30.9396C11.2855 31.0475 11.5761 31.0999 11.8684 31.0938C12.1607 31.0877 12.4488 31.0231 12.7158 30.9039C12.9827 30.7847 13.2231 30.6133 13.4228 30.3998C13.6225 30.1862 13.7774 29.9349 13.8785 29.6605C13.9795 29.3862 14.0246 29.0944 14.0112 28.8023C13.9977 28.5103 13.9259 28.2239 13.8 27.96L10.726 21Z" fill="#ffffff"/>
</g>
<defs>
<clipPath id="clip0">
<rect width="32" height="32" fill="white"/>
</clipPath>
</defs>
</svg>
