<svg width="32" height="32" fill="none" xmlns="http://www.w3.org/2000/svg"><g clip-path="url(#prefix__clip0)"><path d="M28 3H4a3.957 3.957 0 00-4 4v18a3.957 3.957 0 004 4h24a3.956 3.956 0 004-4V7a3.956 3.956 0 00-4-4zM5.156 24.405l-1.562-1.249 5.271-6.588 1.483 1.348-5.192 6.489zm21.688 0l-5.192-6.489 1.483-1.348 5.271 6.588-1.562 1.249zm-10.17-4.665a1 1 0 01-1.347 0L3.587 9.067l1.346-1.48L16 17.648 27.067 7.587l1.346 1.48-11.74 10.673z" fill="#05AA76"/></g><defs><clipPath id="prefix__clip0"><path fill="#fff" d="M0 0h32v32H0z"/></clipPath></defs></svg>