<svg width="24" height="24" viewBox="0 0 24 24" fill="none" xmlns="http://www.w3.org/2000/svg">
<g clip-path="url(#clip0_260_820)">
<path d="M5.274 10.5C6.31235 10.5 7.32739 10.8079 8.19074 11.3848C9.0541 11.9617 9.72701 12.7816 10.1244 13.7409C10.5217 14.7002 10.6257 15.7558 10.4231 16.7742C10.2206 17.7926 9.72054 18.7281 8.98631 19.4623C8.25208 20.1965 7.31662 20.6966 6.29822 20.8991C5.27982 21.1017 4.22422 20.9977 3.26491 20.6004C2.3056 20.203 1.48566 19.5301 0.908785 18.6667C0.331907 17.8034 0.024 16.7884 0.024 15.75L0 15C0 12.2152 1.10625 9.54451 3.07538 7.57538C5.04451 5.60625 7.71523 4.5 10.5 4.5V7.5C9.51465 7.49735 8.53856 7.69007 7.62815 8.067C6.71774 8.44393 5.89109 8.9976 5.196 9.696C4.92584 9.96565 4.67662 10.2555 4.4505 10.563C4.719 10.521 4.9935 10.4985 5.2725 10.4985L5.274 10.5ZM18.774 10.5C19.8124 10.5 20.8274 10.8079 21.6907 11.3848C22.5541 11.9617 23.227 12.7816 23.6244 13.7409C24.0217 14.7002 24.1257 15.7558 23.9231 16.7742C23.7206 17.7926 23.2205 18.7281 22.4863 19.4623C21.7521 20.1965 20.8166 20.6966 19.7982 20.8991C18.7798 21.1017 17.7242 20.9977 16.7649 20.6004C15.8056 20.203 14.9857 19.5301 14.4088 18.6667C13.8319 17.8034 13.524 16.7884 13.524 15.75L13.5 15C13.5 12.2152 14.6062 9.54451 16.5754 7.57538C18.5445 5.60625 21.2152 4.5 24 4.5V7.5C23.0147 7.49735 22.0386 7.69007 21.1282 8.067C20.2177 8.44393 19.3911 8.9976 18.696 9.696C18.4258 9.96565 18.1766 10.2555 17.9505 10.563C18.219 10.521 18.4935 10.5 18.774 10.5Z" fill="#000"/>
</g>
<defs>
<clipPath id="clip0_260_820">
<rect width="24" height="24" fill="white"/>
</clipPath>
</defs>
</svg>
