<svg xmlns="http://www.w3.org/2000/svg" version="1.1" xmlns:xlink="http://www.w3.org/1999/xlink" xmlns:svgjs="http://svgjs.com/svgjs" viewBox="0 0 140 140" width="140" height="140"><g transform="matrix(10,0,0,10,0,0)"><path d="M12.25,3.5H10.5V1.75A1.752,1.752,0,0,0,8.75,0H5.25A1.752,1.752,0,0,0,3.5,1.75V3.5H1.75A1.752,1.752,0,0,0,0,5.25v7A1.752,1.752,0,0,0,1.75,14h10.5A1.752,1.752,0,0,0,14,12.25v-7A1.752,1.752,0,0,0,12.25,3.5ZM5,1.75a.25.25,0,0,1,.25-.25h3.5A.25.25,0,0,1,9,1.75V3.5H5ZM11,11H3a.5.5,0,0,1,0-1h8a.5.5,0,0,1,0,1Zm0-3.5H3a.5.5,0,0,1,0-1h8a.5.5,0,0,1,0,1Z" fill="#000000" stroke="none" stroke-linecap="round" stroke-linejoin="round" stroke-width="0"></path></g></svg>