<svg width="32" height="32" fill="none" xmlns="http://www.w3.org/2000/svg"><path d="M31 6h-1v16c0 1.35-.909 2.54-2.212 2.895l-10.999 3a3.042 3.042 0 01-1.578 0l-11-3A3.007 3.007 0 012 22V6H1a1 1 0 00-1 1v22a1 1 0 001 1h30a1 1 0 001-1V7a1 1 0 00-1-1z" fill="#fff"/><path d="M15 4.691L5.263 2.035a1.01 1.01 0 00-.87.17C4.146 2.395 4 2.688 4 3v19a1 1 0 00.737.965L15 25.765V4.69zM27.607 2.205a1.009 1.009 0 00-.87-.17L17 4.691v21.073l10.263-2.799A1 1 0 0028 22V3c0-.312-.146-.605-.393-.795z" fill="#fff"/></svg>
