<svg width="254" height="196" fill="none" xmlns="http://www.w3.org/2000/svg"><g opacity=".3" fill="#C4ECFE"><path opacity=".3" d="M235.824 5.872v183.56H18.154V5.872h217.67zm.712-.71H17.441V190.14h219.095V5.163z"/><path opacity=".3" d="M71.107 5.163h-.666V190.14h.666V5.163zM98.985 5.163h-.666V190.14h.666V5.163z"/><path opacity=".3" d="M71.107 5.163h-.666V190.14h.666V5.163zM43.23 5.163h-.666V190.14h.666V5.163zM126.862 5.163h-.666V190.14h.666V5.163zM154.74 5.163h-.666V190.14h.666V5.163zM182.273 5.163h-.666V190.14h.666V5.163zM209.806 5.163h-.666V190.14h.666V5.163z"/></g><path d="M200.07 61.512V59.23c5.212 0 9.621-7.92 14.283-16.318 5.695-10.27 12.171-21.91 22.206-21.91v2.282c-8.681 0-14.536 10.545-20.208 20.723-4.983 9.014-9.713 17.505-16.281 17.505zM42.908 44.052c-3.996 0-6.935-3.355-10.035-6.915-3.835-4.405-8.175-9.403-15.432-9.403V25.45c8.315 0 13.227 5.637 17.177 10.179 2.87 3.286 5.35 6.139 8.29 6.139v2.283z" fill="#F9D5FF"/><path d="M36.914 62.972c.52 0 .942-.419.942-.936a.939.939 0 00-.942-.935.939.939 0 00-.941.935c0 .517.421.936.941.936zM148.517 154.286c.52 0 .941-.419.941-.936a.938.938 0 00-.941-.936.94.94 0 00-.942.936.94.94 0 00.942.936zM225.949 84.608a.94.94 0 00.942-.936.94.94 0 00-.942-.936.938.938 0 00-.941.936c0 .517.421.936.941.936zM109.984 17.167a.94.94 0 00.942-.936.94.94 0 00-.942-.936.94.94 0 00-.942.936.94.94 0 00.942.936zM33.125 25.2c.52 0 .942-.418.942-.935a.939.939 0 00-.942-.936.939.939 0 00-.941.936c0 .517.421.936.941.936zM117.562 138.378a.87.87 0 00.873-.867.87.87 0 00-.873-.867.87.87 0 00-.873.867.87.87 0 00.873.867z" fill="#BFD9FF"/><path d="M30.232 83.923a1.278 1.278 0 01-.89-.37 1.263 1.263 0 01-.373-.885v-34.78c0-.333.133-.652.37-.887a1.267 1.267 0 011.786 0c.237.235.37.554.37.887v34.78c-.003.332-.137.65-.373.884a1.278 1.278 0 01-.89.371z" fill="url(#prefix__paint0_linear)"/><path d="M30.232 57.266a1.26 1.26 0 01-.815-.297 1.246 1.246 0 01-.426-.752 4.063 4.063 0 00-1.522-2.556 4.11 4.11 0 00-2.864-.845 1.269 1.269 0 01-1.225-.69 1.247 1.247 0 01-.13-.474 1.232 1.232 0 01.3-.92 1.249 1.249 0 01.872-.427 6.631 6.631 0 014.607 1.38 6.554 6.554 0 012.442 4.12 1.239 1.239 0 01-.573 1.267c-.14.087-.297.145-.46.171a.64.64 0 01-.206.023z" fill="#CAE6C4"/><path d="M30.232 57.267a.64.64 0 01-.207-.023 1.257 1.257 0 01-.818-.505 1.241 1.241 0 01-.215-.933 6.588 6.588 0 012.45-4.112 6.664 6.664 0 014.6-1.388 1.273 1.273 0 01.875.428 1.256 1.256 0 01-.565 2.026c-.16.05-.327.07-.494.056A4.14 4.14 0 0033 53.67a4.091 4.091 0 00-1.529 2.547c-.047.293-.198.559-.425.751a1.26 1.26 0 01-.815.298zM30.232 63.566c-.299 0-.588-.106-.815-.298a1.246 1.246 0 01-.426-.752 4.063 4.063 0 00-1.522-2.555 4.11 4.11 0 00-2.864-.846 1.272 1.272 0 01-.92-.303 1.257 1.257 0 01.736-2.207 6.63 6.63 0 014.608 1.379 6.554 6.554 0 012.442 4.121 1.235 1.235 0 01-.215.933 1.248 1.248 0 01-.818.505.64.64 0 01-.206.023z" fill="#CAE6C4"/><path d="M30.232 63.565a.64.64 0 01-.207-.023 1.257 1.257 0 01-.818-.504 1.241 1.241 0 01-.215-.933 6.588 6.588 0 012.45-4.112 6.664 6.664 0 014.6-1.389c.335.025.646.18.866.433a1.254 1.254 0 01-.13 1.775 1.272 1.272 0 01-.92.303A4.138 4.138 0 0033 59.97a4.091 4.091 0 00-1.529 2.546c-.047.293-.198.56-.425.752a1.26 1.26 0 01-.815.298z" fill="#CAE6C4"/><path d="M170.884 190.14c-23.354-1.507-31.001-33.253-44.618-45.783-13.618-12.529-43.057-3.559-49.441-37.748-4.272-22.846-23.423-23.85-39.383-32.271-8.703-4.588-19.197 1.665-19.197 11.48v104.299l152.638.023h.001z" fill="url(#prefix__paint1_linear)"/><path d="M156.14 190.139c22.896 0 22.16-34.507 42.068-39.072 7.946-1.826 12.286-7.668 15.96-14.013 6.131-10.567 22.366-6.299 22.366 5.911v47.197l-80.395-.023h.001z" fill="url(#prefix__paint2_linear)"/><path d="M224.595 188.793H26.604v.936h197.991v-.936z" fill="#172926"/><path d="M181.079 190.14c12.263 0 17.866-17.87 32.31-16.136 4.34.524 9.185-8.307 11.16-11.639 3.284-5.524 11.987-3.287 11.987 3.081v24.694h-55.457z" fill="url(#prefix__paint3_linear)"/><path d="M78.4 41.309l13.158 31.568-1.286-2.167 18.784 27.211c2.021 2.919 1.263 6.934-1.676 8.941a6.497 6.497 0 01-8.381-.912L76.288 81.863a5.459 5.459 0 01-1.08-1.664l-.206-.502-13.158-31.568c-1.906-4.539.275-9.762 4.845-11.633 4.57-1.893 9.828.274 11.711 4.813z" fill="#8670BD"/><path d="M188.648 46.715c-3.697-2.806-9.002-2.099-11.826 1.573l-13.089 16.993-16.626-1.779c-2.801-.296-5.534 1.369-6.452 4.128-1.057 3.194.689 6.615 3.88 7.664l21.265 6.98c2.847.935 6.085.045 7.991-2.44l.505-.64 15.937-20.71c2.824-3.672 2.112-8.941-1.585-11.77z" fill="url(#prefix__paint4_linear)"/><path d="M172.413 69.934c1.171-7.162 6.315-6.637 4.662-12.203l-10.908 7.87v11.632l1.447 6.41 6.383-2.646-1.584-11.063z" fill="#172926"/><path d="M171.448 66.764c0 7.87-4.707 22.17-11.022 37.84a445.446 445.446 0 01-3.009 7.299c-10.241 24.201-23.101 49.793-27.9 59.144-.804 1.551-3.031 1.551-3.812 0-6.475-12.659-27.763-55.038-37.27-83.504-1.515-4.539-2.732-8.735-3.536-12.385-.712-3.262-1.125-6.09-1.125-8.37 0-24.041 19.634-43.543 43.837-43.543 24.204 0 43.837 19.478 43.837 43.52z" fill="#fff"/><path d="M127.611 173.351c-.023 0-.023 0 0 0a3.205 3.205 0 01-2.916-1.802c-6.338-12.408-27.809-55.13-37.339-83.664-1.584-4.767-2.778-8.964-3.559-12.5-.78-3.558-1.148-6.363-1.148-8.621 0-24.634 20.185-44.683 44.985-44.683 24.801 0 44.986 20.026 44.986 44.66 0 7.116-3.743 19.98-11.114 38.273a452.526 452.526 0 01-3.009 7.322c-10.724 25.318-24.088 51.731-27.946 59.212a3.292 3.292 0 01-2.94 1.803zm0-148.966c-23.537 0-42.689 19.022-42.689 42.402 0 2.075.367 4.744 1.102 8.12.758 3.467 1.93 7.595 3.514 12.271 9.484 28.375 30.863 70.982 37.2 83.344a.986.986 0 001.769 0c3.835-7.481 17.176-33.826 27.854-59.075a549.045 549.045 0 003.009-7.276c7.256-18.02 10.93-30.61 10.93-37.407 0-23.38-19.151-42.38-42.689-42.38z" fill="#05AA76"/><path d="M161.643 104.718c-.964 2.395-1.883 4.311-2.939 6.775-3.077 1.186-6.292.273-7.854-1.779a6.004 6.004 0 01.528-7.87l4.157-4.197 6.108 7.071zM98.034 81.339c-.252 3.193-2.824 5.656-5.947 5.907l-4.914.297c-1.516-4.54-2.297-8.668-2.297-12.386v-1.3l7.211.57c3.56.251 6.223 3.353 5.947 6.912z" fill="#172926"/><path d="M127.615 93.747c15.549 0 28.154-12.52 28.154-27.965 0-15.444-12.605-27.964-28.154-27.964s-28.154 12.52-28.154 27.965c0 15.444 12.605 27.964 28.154 27.964z" fill="#05AA76"/><path d="M127.611 76.116a2.327 2.327 0 01-1.745-.799l-8.818-10.15a2.286 2.286 0 01.23-3.216 2.324 2.324 0 013.238.228l6.889 7.938 8.611-12.203a2.296 2.296 0 013.192-.547 2.26 2.26 0 01.551 3.17l-10.311 14.598a2.278 2.278 0 01-1.768.958c0 .023-.023.023-.069.023z" fill="#fff"/><path d="M172.252 71.143c.758-8.44 6.568-7.55 4.823-13.412-1.745-5.861 1.538-13.594 8.06-13.023 5.029.433 5.397.273 7.532.456 5.167.456 8.749 4.835 8.978 9.648.184 4.128-1.217 16.628-1.377 18.59l-28.016-2.259z" fill="url(#prefix__paint5_linear)"/><path d="M196.272 78.761l-3.33 26.756-1.653 13.389c-.551 4.47-1.079 8.918-1.699 13.366l-7.119 53.464-16.213-2.121c-.114-1.141-.16-2.281-.252-3.422-.069-1.14-.115-2.281-.184-3.421l-.092-1.711-.069-1.71-.114-3.399a383.36 383.36 0 01-.161-13.594c.023-9.055.321-18.065.781-27.051.115-2.236.252-4.494.367-6.729l.207-3.376.092-1.688.114-1.688.253-3.353.275-3.352c.184-2.236.414-4.471.644-6.706a320.289 320.289 0 011.722-13.344c.689-4.425 1.699-11.313 2.755-15.715l23.676 5.406z" fill="url(#prefix__paint6_linear)"/><g opacity=".3"><g opacity=".3"><g opacity=".3"><path opacity=".3" d="M171.426 174.947c-.459 0-.919-.296-1.08-.752a1.123 1.123 0 01.689-1.46l1.562-.57a1.133 1.133 0 011.469.684 1.122 1.122 0 01-.689 1.46l-1.561.57a1.073 1.073 0 01-.39.068zM177.534 183.957a.94.94 0 01-.482-.114c-.574-.274-.827-.935-.551-1.506l.712-1.528c.276-.57.942-.821 1.516-.547.573.274.826.935.551 1.505l-.712 1.529c-.184.41-.597.661-1.034.661zM168.395 182.771c-.459 0-.919-.296-1.08-.753l-.574-1.551a1.122 1.122 0 01.689-1.459 1.134 1.134 0 011.47.684l.574 1.551a1.123 1.123 0 01-.689 1.46 1.094 1.094 0 01-.39.068z" fill="#fff"/></g><path opacity=".3" d="M184.033 173.921l-.276 2.099c-.092.022-.183.045-.275.045-.161 0-.322-.045-.482-.114l-1.539-.707c-.574-.274-.827-.935-.551-1.505a1.135 1.135 0 011.516-.548l1.538.708c.023-.001.046.022.069.022z" fill="#fff"/></g><g opacity=".3"><g opacity=".3"><g opacity=".3"><path opacity=".3" d="M172.184 139.411a1.16 1.16 0 01-1.08-.753 1.122 1.122 0 01.689-1.459l1.562-.57a1.133 1.133 0 011.469.684 1.122 1.122 0 01-.689 1.46l-1.561.57a1.094 1.094 0 01-.39.068zM178.292 148.421a.94.94 0 01-.482-.114c-.574-.274-.827-.936-.551-1.506l.712-1.528c.275-.57.941-.821 1.515-.547.574.274.827.935.551 1.505l-.712 1.528c-.183.41-.597.662-1.033.662zM169.153 147.235c-.46 0-.919-.297-1.08-.753l-.574-1.551a1.123 1.123 0 01.689-1.46 1.135 1.135 0 011.47.685l.574 1.551a1.122 1.122 0 01-.689 1.459 1.073 1.073 0 01-.39.069z" fill="#fff"/></g><g opacity=".3"><path opacity=".3" d="M171.495 156.495c-.459 0-.919-.297-1.08-.753-.206-.593.092-1.254.689-1.46l1.585-.57c.597-.205 1.263.092 1.469.685.207.593-.091 1.254-.689 1.459l-1.584.57a1.167 1.167 0 01-.39.069zM177.603 165.482c-.161 0-.321-.046-.482-.114a1.146 1.146 0 01-.551-1.528l.712-1.506a1.16 1.16 0 011.538-.547c.574.274.827.958.551 1.528l-.712 1.505a1.188 1.188 0 01-1.056.662zM168.487 164.318c-.46 0-.919-.296-1.08-.752l-.574-1.574c-.206-.593.092-1.255.689-1.46.597-.205 1.263.091 1.47.685l.574 1.573c.206.593-.092 1.255-.689 1.46a1.165 1.165 0 01-.39.068z" fill="#fff"/></g></g><g opacity=".3"><g opacity=".3"><path opacity=".3" d="M184.239 140.529c-.161 0-.321-.046-.482-.114l-1.516-.707a1.147 1.147 0 01-.55-1.529 1.16 1.16 0 011.538-.547l1.515.707c.574.274.827.958.551 1.529a1.19 1.19 0 01-1.056.661zM187.316 132.819c-.161 0-.322-.045-.482-.114a1.146 1.146 0 01-.551-1.528l.712-1.505a1.16 1.16 0 011.538-.548c.574.274.827.958.551 1.529l-.712 1.505a1.19 1.19 0 01-1.056.661z" fill="#fff"/></g><g opacity=".3"><path opacity=".3" d="M183.55 157.612a1.23 1.23 0 01-.482-.114l-1.515-.707a1.146 1.146 0 01-.551-1.528 1.16 1.16 0 011.538-.547l1.516.707c.573.273.826.958.551 1.528-.207.41-.62.661-1.057.661zM187.73 146.185l-.459 3.513a1.08 1.08 0 01-.644.205c-.16 0-.321-.045-.482-.114a1.147 1.147 0 01-.551-1.528l.712-1.505a1.143 1.143 0 011.424-.571z" fill="#fff"/></g></g></g><g opacity=".3"><g opacity=".3"><g opacity=".3"><path opacity=".3" d="M172.941 103.874a1.16 1.16 0 01-1.079-.752c-.207-.593.091-1.255.689-1.46l1.584-.57c.597-.206 1.263.091 1.47.684.206.593-.092 1.255-.689 1.46l-1.585.57a1.157 1.157 0 01-.39.068zM179.049 112.884a.937.937 0 01-.482-.114c-.574-.274-.827-.935-.551-1.505l.712-1.528a1.133 1.133 0 011.515-.548c.574.274.827.936.551 1.506l-.712 1.528c-.183.41-.597.661-1.033.661zM169.91 111.698a1.16 1.16 0 01-1.079-.753l-.574-1.551a1.122 1.122 0 01.689-1.46 1.134 1.134 0 011.469.685l.574 1.551a1.121 1.121 0 01-.689 1.459 1.069 1.069 0 01-.39.069z" fill="#fff"/></g><g opacity=".3"><path opacity=".3" d="M172.253 120.958a1.16 1.16 0 01-1.08-.753c-.206-.592.092-1.254.689-1.459l1.585-.57c.597-.206 1.263.091 1.469.684.207.593-.092 1.255-.689 1.46l-1.584.57a1.191 1.191 0 01-.39.068zM178.36 129.945c-.16 0-.321-.046-.482-.114a1.146 1.146 0 01-.551-1.528l.712-1.505c.276-.57.965-.822 1.539-.548.574.274.827.958.551 1.528l-.712 1.506c-.207.41-.62.661-1.057.661zM169.244 128.782a1.16 1.16 0 01-1.079-.753l-.574-1.574c-.207-.593.092-1.254.689-1.459.597-.206 1.263.091 1.469.684l.574 1.574c.207.593-.092 1.254-.689 1.459a1.163 1.163 0 01-.39.069z" fill="#fff"/></g></g><g opacity=".3"><g opacity=".3"><path opacity=".3" d="M184.997 104.992a1.23 1.23 0 01-.482-.114l-1.516-.707a1.147 1.147 0 01-.551-1.528c.276-.57.965-.821 1.539-.547l1.515.707c.574.273.827.958.551 1.528a1.19 1.19 0 01-1.056.661zM188.074 97.282c-.16 0-.321-.045-.482-.114a1.146 1.146 0 01-.551-1.528l.712-1.505c.276-.57.965-.821 1.539-.547.574.273.826.958.551 1.528l-.712 1.505c-.207.41-.621.662-1.057.662zM193.034 104.696l-.092.821-.183 1.551-.345-.935a1.138 1.138 0 01.62-1.437z" fill="#fff"/></g><g opacity=".3"><path opacity=".3" d="M184.308 122.076c-.161 0-.321-.046-.482-.114l-1.516-.708a1.146 1.146 0 01-.551-1.528c.276-.57.965-.821 1.539-.547l1.515.707c.574.274.827.958.551 1.528-.206.411-.62.662-1.056.662zM187.385 114.366c-.16 0-.321-.045-.482-.114a1.146 1.146 0 01-.551-1.528l.712-1.505c.276-.57.965-.821 1.539-.547.573.273.826.958.551 1.528l-.712 1.505a1.19 1.19 0 01-1.057.661z" fill="#fff"/></g></g></g><g opacity=".3"><g opacity=".3"><path opacity=".3" d="M181.461 75.386l-.621 1.3c-.183.41-.62.661-1.033.661a.937.937 0 01-.482-.113c-.574-.274-.827-.936-.551-1.506l.413-.867 2.274.525z" fill="#fff"/><g opacity=".3"><path opacity=".3" d="M173.01 85.422c-.459 0-.918-.297-1.079-.753-.207-.593.092-1.255.689-1.46l1.584-.57c.597-.205 1.263.091 1.47.684.207.594-.092 1.255-.689 1.46l-1.584.57a1.177 1.177 0 01-.391.069zM179.119 94.408c-.161 0-.322-.045-.482-.114a1.146 1.146 0 01-.551-1.528l.712-1.505a1.16 1.16 0 011.538-.547c.574.273.827.958.551 1.528l-.712 1.505a1.19 1.19 0 01-1.056.661zM170.392 93.177a1.194 1.194 0 01-1.125-.182c.161-1.187.321-2.373.505-3.536.322.114.597.342.712.684l.574 1.574a1.11 1.11 0 01-.666 1.46z" fill="#fff"/></g></g><g opacity=".3"><path opacity=".3" d="M185.066 86.54c-.16 0-.321-.046-.482-.115l-1.515-.707a1.146 1.146 0 01-.551-1.528 1.16 1.16 0 011.538-.547l1.516.707c.574.274.826.958.551 1.528-.207.41-.621.662-1.057.662zM189.636 77.257l-.413.912c-.184.41-.597.662-1.034.662-.16 0-.321-.023-.482-.092a1.142 1.142 0 01-.574-1.505l.23-.502 2.273.525zM195.101 88.16l-.184 1.527a1.22 1.22 0 01-.367.228 1.28 1.28 0 01-.39.069c-.459 0-.919-.274-1.079-.753l-.574-1.55a1.121 1.121 0 01.689-1.46 1.133 1.133 0 011.469.684l.436 1.254z" fill="#fff"/></g></g></g><path d="M182.608 95.116c1.126 7.23 3.078 18.817-.872 24.839-3.95 6.021 2.709 19.707.413 26.549-2.296 6.843 3.123 18.27 2.411 23.631l6.223-47.056-8.175-27.963z" fill="#172926"/><path d="M210.533 127.208c-.368-2.167-.689-4.334-1.011-6.5l-1.01-6.501s-8.68-36.403-8.267-40.805l-27.947-2.805c-.298 3.49 2.32 8.006 6.499 10.446l.069 1.118.275 3.284c.092 1.095.207 2.19.322 3.285.137 1.095.229 2.19.39 3.262a273.206 273.206 0 001.906 13.024l.276 1.619.298 1.62.574 3.239c.413 2.166.804 4.311 1.263 6.477l.666 3.239.712 3.216c.459 2.144.942 4.289 1.493 6.432a534.12 534.12 0 007.049 25.547 429.15 429.15 0 004.111 12.682l1.102 3.147.551 1.574.597 1.574 1.171 3.148c.413 1.049.804 2.098 1.263 3.124l14.26-7.435-6.612-47.011z" fill="url(#prefix__paint7_linear)"/><g opacity=".3"><g opacity=".3"><g opacity=".3"><path opacity=".3" d="M203.919 171.275a.937.937 0 01-.482-.114l-1.539-.707c-.574-.274-.826-.935-.551-1.506.276-.57.942-.821 1.516-.547l1.538.707c.574.274.827.936.551 1.506-.183.41-.597.661-1.033.661zM216.113 166.896h-.115a1.16 1.16 0 01-1.079-.753c-.207-.593.092-1.255.689-1.46l.184-.068.321 2.281zM206.996 163.566c-.161 0-.321-.046-.482-.114a1.147 1.147 0 01-.551-1.529l.712-1.505a1.16 1.16 0 011.538-.547c.574.274.827.958.551 1.528l-.712 1.505c-.206.411-.62.662-1.056.662zM212.99 174.742a1.16 1.16 0 01-1.08-.753l-.574-1.573c-.206-.593.092-1.255.689-1.46.597-.205 1.263.091 1.47.684l.574 1.574c.206.593-.092 1.255-.689 1.46a1.191 1.191 0 01-.39.068z" fill="#fff"/></g><path opacity=".3" d="M208.052 178.483l-.298.616-2.296 1.186a1.133 1.133 0 01-.207-1.277l.712-1.506a1.16 1.16 0 011.538-.547c.574.273.827.958.551 1.528z" fill="#fff"/></g><g opacity=".3"><g opacity=".3"><g opacity=".3"><path opacity=".3" d="M192.621 134.621a1.16 1.16 0 01-1.079-.753 1.121 1.121 0 01.689-1.459l1.561-.57a1.134 1.134 0 011.47.684 1.123 1.123 0 01-.689 1.46l-1.562.57a1.086 1.086 0 01-.39.068zM198.729 143.631a.94.94 0 01-.482-.114c-.574-.274-.827-.935-.551-1.505l.712-1.528c.275-.57.941-.822 1.515-.548.574.274.827.936.551 1.506l-.712 1.528c-.183.41-.597.661-1.033.661zM190.049 142.353c-.344-1.254-.666-2.486-1.01-3.74.459 0 .895.296 1.056.753l.574 1.551a1.146 1.146 0 01-.62 1.436z" fill="#fff"/></g><g opacity=".3"><path opacity=".3" d="M193.907 151.067l-1.263.456c-.207-.73-.437-1.46-.644-2.19l1.126-.41c.597-.205 1.263.091 1.469.684.207.593-.092 1.255-.688 1.46zM198.04 160.692c-.161 0-.321-.046-.482-.114a1.146 1.146 0 01-.551-1.528l.712-1.505a1.16 1.16 0 011.538-.548c.574.274.827.958.551 1.528l-.712 1.506c-.206.41-.619.661-1.056.661z" fill="#fff"/></g></g><g opacity=".3"><g opacity=".3"><path opacity=".3" d="M204.677 135.739c-.161 0-.322-.046-.482-.114l-1.516-.707a1.147 1.147 0 01-.551-1.529c.276-.57.965-.821 1.539-.547l1.515.707c.574.274.827.958.551 1.528a1.19 1.19 0 01-1.056.662zM207.753 128.029c-.16 0-.321-.046-.482-.114a1.147 1.147 0 01-.551-1.528l.712-1.505c.276-.57.965-.822 1.539-.548.574.274.827.958.551 1.528l-.712 1.506c-.207.41-.62.661-1.057.661z" fill="#fff"/></g><g opacity=".3"><path opacity=".3" d="M203.988 152.822c-.161 0-.322-.045-.482-.114l-1.516-.707a1.146 1.146 0 01-.551-1.528c.276-.57.965-.821 1.539-.547l1.515.707c.574.273.827.958.551 1.528a1.19 1.19 0 01-1.056.661zM207.065 145.113c-.161 0-.321-.046-.482-.114a1.146 1.146 0 01-.551-1.528l.712-1.505a1.16 1.16 0 011.538-.548c.574.274.827.958.551 1.528l-.712 1.506a1.19 1.19 0 01-1.056.661zM213.058 156.267c-.459 0-.918-.297-1.079-.753l-.574-1.551a1.122 1.122 0 01.689-1.46 1.134 1.134 0 011.47.685l.574 1.55a1.123 1.123 0 01-.689 1.46 1.074 1.074 0 01-.391.069z" fill="#fff"/></g></g></g><g opacity=".3"><g opacity=".3"><g opacity=".3"><path opacity=".3" d="M182.333 102.802c-.16.342-.482.57-.849.639a91.267 91.267 0 01-.391-2.463l.689.319c.574.251.827.935.551 1.505zM193.378 99.084c-.459 0-.918-.296-1.079-.752-.206-.593.092-1.255.689-1.46l1.585-.57c.596-.206 1.263.09 1.469.684.207.593-.092 1.255-.689 1.46l-1.584.57a1.173 1.173 0 01-.391.068zM184.377 95.754c-.16 0-.321-.046-.482-.114a1.147 1.147 0 01-.551-1.528l.712-1.505c.276-.57.965-.822 1.539-.548.574.274.827.959.551 1.529l-.712 1.505a1.19 1.19 0 01-1.057.661zM199.487 108.094a.941.941 0 01-.482-.114c-.574-.274-.827-.935-.551-1.505l.712-1.528a1.135 1.135 0 011.516-.548c.574.274.826.935.551 1.506l-.712 1.528c-.184.41-.598.661-1.034.661zM190.348 106.908c-.459 0-.919-.297-1.08-.753l-.574-1.551a1.122 1.122 0 01.689-1.46 1.134 1.134 0 011.47.685l.574 1.551a1.122 1.122 0 01-.689 1.459 1.073 1.073 0 01-.39.069z" fill="#fff"/></g><g opacity=".3"><path opacity=".3" d="M192.69 116.168a1.16 1.16 0 01-1.079-.753c-.207-.592.092-1.254.689-1.459l1.584-.57c.597-.206 1.263.091 1.47.684.206.593-.092 1.255-.689 1.46l-1.585.57a1.182 1.182 0 01-.39.068zM185.434 110.671l-.712 1.506c-.207.41-.62.661-1.034.661-.16 0-.321-.045-.482-.114-.023 0-.046-.023-.069-.023-.069-.41-.16-.798-.229-1.208l-.115-.593.574-1.186a1.16 1.16 0 011.538-.548c.552.274.804.935.529 1.505zM198.798 125.155c-.16 0-.321-.046-.482-.114a1.146 1.146 0 01-.551-1.528l.712-1.505a1.16 1.16 0 011.539-.548c.574.274.826.958.551 1.528l-.712 1.506c-.207.41-.62.661-1.057.661zM189.682 123.992a1.16 1.16 0 01-1.079-.753l-.574-1.574c-.207-.593.091-1.254.689-1.46.597-.205 1.263.092 1.469.685l.574 1.574c.207.592-.092 1.254-.689 1.459a1.158 1.158 0 01-.39.069z" fill="#fff"/></g></g><g opacity=".3"><path opacity=".3" d="M205.273 100.179a.744.744 0 01-.321-.091l-1.516-.707a1.147 1.147 0 01-.551-1.528c.276-.57.965-.821 1.539-.547l.252.114c.184.957.391 1.87.597 2.759z" fill="#fff"/><g opacity=".3"><path opacity=".3" d="M204.745 117.286c-.16 0-.321-.045-.482-.114l-1.515-.707a1.146 1.146 0 01-.551-1.528c.275-.57.964-.821 1.538-.548l1.516.708c.574.273.827.958.551 1.528-.207.41-.62.661-1.057.661zM207.409 109.486c-.023 0-.046-.023-.069-.023a1.146 1.146 0 01-.551-1.528l.184-.365c.138.684.298 1.322.436 1.916z" fill="#fff"/></g></g></g><g opacity=".3"><path opacity=".3" d="M182.402 84.35a1.13 1.13 0 01-1.033.662c-.161 0-.322-.046-.482-.115l-1.516-.707a1.35 1.35 0 01-.344-.25l-.115-1.415a1.19 1.19 0 011.447-.41l1.515.707c.551.273.804.957.528 1.528zM193.448 80.632a1.16 1.16 0 01-1.079-.753c-.207-.593.091-1.255.689-1.46l1.584-.57c.597-.205 1.263.091 1.47.684.206.593-.092 1.255-.69 1.46l-1.584.57a1.172 1.172 0 01-.39.069zM184.446 77.302a.94.94 0 01-.482-.114c-.574-.274-.827-.935-.551-1.505l.712-1.529c.276-.57.942-.82 1.516-.547.574.274.826.936.551 1.506l-.712 1.528c-.184.41-.598.661-1.034.661zM199.556 89.619a1.24 1.24 0 01-.482-.114 1.146 1.146 0 01-.551-1.528l.712-1.506c.276-.57.965-.82 1.539-.547.574.274.826.958.551 1.528l-.712 1.506c-.207.41-.621.66-1.057.66zM190.44 88.456c-.459 0-.919-.297-1.08-.753l-.574-1.574c-.206-.593.092-1.254.689-1.46.597-.205 1.263.091 1.47.685l.574 1.573c.207.594-.092 1.255-.689 1.46a1.176 1.176 0 01-.39.069z" fill="#fff"/></g></g><path d="M196.272 23.495c4.046 0 7.325-3.258 7.325-7.276 0-4.019-3.279-7.276-7.325-7.276s-7.325 3.258-7.325 7.276 3.279 7.276 7.325 7.276z" fill="#EA7068"/><path d="M189.268 28.718c3.411 0 6.177-2.747 6.177-6.136 0-3.388-2.766-6.135-6.177-6.135-3.412 0-6.177 2.747-6.177 6.135 0 3.389 2.765 6.136 6.177 6.136z" fill="#172926"/><path d="M182.861 39.804l5.902.205c3.054.114 5.626-2.258 5.718-5.292l.321-8.826c.161-4.859-3.651-8.919-8.542-9.101-4.891-.16-8.979 3.626-9.163 8.485l-.275 8.097c-.138 3.42 2.572 6.295 6.039 6.432z" fill="#FBB753"/><path d="M177.809 27.784a.988.988 0 01-.827.98l.069-1.961c.437.114.758.501.758.98z" fill="#172926"/><path d="M187.155 49.977l7.05-2.304a.913.913 0 00.62-.867l-.207-16.08-9.415-.32-1.492 16.879c-.161 1.848 1.653 3.285 3.444 2.692z" fill="#FBB753"/><path d="M179.141 30.862a.43.43 0 01-.161-.045l-.826-.525a.942.942 0 01-.345-.661 1.01 1.01 0 01.23-.707l1.309-1.438c.114-.114.275-.114.413-.022.115.114.115.273.023.41l-1.309 1.437c-.069.091-.115.183-.092.297 0 .09.046.205.138.273l.781.48c.137.09.183.25.092.387a.369.369 0 01-.253.114zM180.036 34.17c-.091 0-.206 0-.298-.023-.804-.16-1.194-.89-1.217-.913-.069-.136-.023-.319.115-.387.137-.069.321-.023.39.114 0 0 .298.524.827.616.39.068.827-.091 1.286-.479a.296.296 0 01.413.046.291.291 0 01-.046.41c-.505.41-1.01.616-1.47.616zM184.377 39.85l3.834.136-4.156 3.627.322-3.763zM182.54 29.038c.558 0 1.01-.45 1.01-1.004s-.452-1.003-1.01-1.003-1.011.45-1.011 1.003c0 .555.453 1.004 1.011 1.004zM153.882 189.636l26.155-.091a2.496 2.496 0 002.503-2.463l.069-3.285-16.534.228-12.515 3.125c-1.469.365-1.194 2.509.322 2.486zM193.379 189.636l5.511-.023 18.486-9.101a2.514 2.514 0 001.171-3.307l-1.401-2.988-14.742 7.436-4.478 4.265-4.868 1.209c-1.447.388-1.172 2.532.321 2.509z" fill="#172926"/><path d="M162.975 104.901l-3.582 2.668c-2.687 2.008-6.499 1.483-8.52-1.186a6.003 6.003 0 01.528-7.87l4.157-4.196" fill="#FBB753"/><path d="M155.535 94.317l18.003-18.224-1.791 2.212 13.801-24.474c2.274-4.037 7.417-5.474 11.482-3.216 4.064 2.258 5.511 7.367 3.238 11.404l-13.801 24.475-.253.456c-.39.707-.941 1.3-1.538 1.756l-21.678 16.217-7.463-10.606z" fill="url(#prefix__paint8_linear)"/><path d="M194.32 72.877a.43.43 0 01-.161-.046c-.16-.091-.229-.296-.137-.456l5.947-10.538c.092-.16.299-.228.459-.137.161.092.23.297.138.457l-5.948 10.537a.356.356 0 01-.298.183zM175.904 71.052a.335.335 0 01-.161-.046c-.161-.09-.23-.296-.138-.456l8.014-13.845c.092-.16.299-.228.459-.137.161.091.23.297.138.456l-8.014 13.846a.36.36 0 01-.298.182z" fill="#172926"/><path d="M177.098 25.252l3.329-3.65 1.952 1.78c1.654 1.528 2.871 3.466 3.468 5.633.666 2.373 1.447 5.2 1.493 5.315 1.607 4.493 4.225 5.976 8.198 5.976h2.043l-2.686-15.031c0-4.745-4.088-8.577-8.864-8.577h-.276c-4.777-.023-8.657 3.81-8.657 8.554z" fill="#EA7068"/><path d="M188.832 138.293c-.161 0-.299-.091-.322-.251-1.952-7.253-6.843-31.545-7.991-38.707-.023-.182.092-.365.276-.388.183-.023.367.091.39.274 1.148 7.162 6.039 31.431 7.991 38.661a.34.34 0 01-.252.411h-.092z" fill="#172926"/><path d="M82.12 63.593c-.804-8.987-6.98-8.029-5.12-14.278 1.86-6.227-1.654-14.461-8.589-13.868-5.35.479-5.74.273-7.991.479-2.159.182-6.499 2.828-8.13 3.9-3.811 2.486-2.48 6.34-.642 10.971 0 0-3.652-2.144-3.514-.114.138 2.03.735 9.99 1.286 16.149l32.7-3.239z" fill="#8670BD"/><path d="M82.005 64.757c1.08 4.698 1.86 13.366 2.55 18.11.688 4.744 1.24 9.489 1.721 14.256l.322 3.581.16 1.779.138 1.779.276 3.581.23 3.581.114 1.802.092 1.802.184 3.581c.16 2.395.069 4.79.046 7.185-.161 9.602-.505 19.228-1.126 28.853l-.23 3.604-.275 3.604c-.092 1.209-.206 2.418-.298 3.604l-.16 1.802-.184 1.802-.368 3.604c-.069.592-.115 1.208-.184 1.802l-.206 1.802a173.11 173.11 0 01-.436 3.604c-.161 1.208-.322 2.417-.528 3.603l-17.36 1.095-3.652-56.658c-.207-4.744-.873-9.42-1.4-14.118L59.8 99.701l-3.238-28.17 25.443-6.774z" fill="url(#prefix__paint9_linear)"/><path d="M69.582 97.442c2.641 19.479-1.423 23.128.988 37.27 2.526 14.757-4.639 22.9-4.822 39.209l-4.616-65.964 8.45-10.515z" fill="#172926"/><path d="M76.793 74.063c-.873 4.904-2.067 9.716-3.33 14.53a339.016 339.016 0 01-4.18 14.278c-1.492 4.744-3.123 9.443-4.776 14.118l-5.143 14.028c-3.445 9.352-22.39 53.122-23.561 55.381l-17.13-2.395 16.648-59.464c.689-2.395 1.355-4.789 2.044-7.184l2.112-7.162 8.198-26.254 1.723-17.083 27.395 7.207z" fill="url(#prefix__paint10_linear)"/><path d="M49.398 66.855c.413 4.744 5.005 10.515 13.318 9.853l6.706-.752C77 75.363 82.51 68.109 82.052 63l-32.655 3.855z" fill="url(#prefix__paint11_linear)"/><path d="M70.845 30.246l-6.269.228c-3.238.114-5.97-2.418-6.085-5.634l-.321-9.397c-.207-5.178 3.857-9.511 9.047-9.694 5.19-.182 9.553 3.855 9.737 9.01l.298 8.622a6.615 6.615 0 01-6.407 6.865z" fill="#EA7068"/><path d="M77.091 18.5c-.482-.092-.873-.525-.873-1.027 0-.479.345-.89.804-1.004l.069 2.03z" fill="#172926"/><path d="M58.1 38.412l14.996 9.146-3.17-11.746-11.825 2.6z" fill="#fff"/><path d="M66.276 41.08l-8.152-2.668.206-17.814 10.012-.342 1.585 17.95c.16 1.985-1.768 3.49-3.651 2.874z" fill="#EA7068"/><path d="M74.795 20.78c-.092 0-.207-.045-.252-.136a.296.296 0 01.091-.41l.827-.525a.367.367 0 00.138-.297.425.425 0 00-.115-.319l-1.4-1.528a.296.296 0 01.022-.433.3.3 0 01.437.022l1.4 1.529c.184.205.276.479.276.752a1.03 1.03 0 01-.368.73l-.022.023-.85.547c-.07.046-.138.046-.184.046zM69.215 30.315l-3.996-.548 4.363 4.562-.367-4.014zM71.167 18.773c.583 0 1.056-.47 1.056-1.049 0-.58-.473-1.05-1.056-1.05-.584 0-1.057.47-1.057 1.05 0 .58.473 1.05 1.057 1.05zM96.978 189.659l-27.832-.114c-1.447 0-2.64-1.163-2.664-2.6l-.068-3.49 17.59.251 13.318 3.307c1.539.365 1.24 2.646-.344 2.646zM49.19 189.659l-27.808-.114c-1.446 0-2.64-1.163-2.663-2.6l-.093-3.513 17.59.251 13.32 3.307c1.538.388 1.262 2.669-.345 2.669z" fill="#172926"/><path d="M84.876 71.029l7.21.57a6.456 6.456 0 015.948 6.934c-.253 3.193-2.824 5.657-5.948 5.907l-7.233.57" fill="#EA7068"/><path d="M49.076 59.967c1.608 4.334 2.228 23.63 2.228 23.63 0 4.129 3.697 7.276 7.807 6.638l24.663-5.224s-21.379-9.99-21.494-9.853c-.115.136-10.586-10.401-13.204-15.191z" fill="#172926"/><path d="M84.853 85.01L60.49 86.928c-4.386.342-8.22-2.783-8.795-7.048l-.091-.685-3.996-30.313c-.643-4.881 2.825-9.352 7.716-9.99 4.914-.64 9.415 2.805 10.057 7.663L69.4 76.868l-8.887-7.755L84.9 71.029" fill="#8670BD"/><path d="M67.47 14.622l9.484-.524.758-1.665c1.47-3.262-.919-6.934-4.524-6.934H60.512c-3.008 0-5.328 2.645-4.891 5.61l2.595 18.111 5.442-9.785.344 5.429h.023l.07 2.76c.045 1.528 1.308 2.736 2.847 2.736l3.88-.022c3.514 0 6.338-2.829 6.338-6.296v-1.688c0-.82-.666-1.505-1.492-1.505h-2.48c-.988 0-1.93.524-2.435 1.369l-.022.045a2.778 2.778 0 01-2.366 1.323l-1.125.023c-.896 0-1.63-.685-1.653-1.551l-.23-5.04c-.069-1.278.873-2.327 2.113-2.396z" fill="#172926"/><path d="M72.958 23.609c0 1.779 2.71 1.596 2.71-.251l-2.71.25z" fill="#fff"/><path d="M64.025 23.427l-1.538.114a1.528 1.528 0 01-1.653-1.437l-.161-2.395a1.525 1.525 0 011.447-1.642c.85-.069 1.607.57 1.653 1.436l.252 3.924z" fill="#EA7068"/><path d="M82.075 63.388a.347.347 0 01-.345-.297c-.436-4.174-5.281-12.111-5.327-12.202a.363.363 0 01.114-.48.369.369 0 01.483.115c.206.319 4.96 8.143 5.42 12.477.022.182-.116.364-.3.364-.023.023-.023.023-.046.023zM67.653 64.642a.366.366 0 01-.344-.296l-1.08-8.667a.354.354 0 01.299-.388.356.356 0 01.39.297l1.08 8.667a.354.354 0 01-.299.388h-.046zM62.28 123.398c-.046 0-.092 0-.114-.022-.184-.069-.276-.274-.207-.434 5.764-15.054 10.747-32.89 10.816-33.073.046-.182.23-.296.413-.228.184.046.298.228.23.41-.046.183-5.052 18.043-10.816 33.119a.345.345 0 01-.322.228z" fill="#172926"/><defs><linearGradient id="prefix__paint0_linear" x1="30.232" y1="46.631" x2="30.232" y2="83.923" gradientUnits="userSpaceOnUse"><stop offset=".259" stop-color="#CAE6C4"/><stop offset=".477" stop-color="#CDE7C7"/><stop offset=".654" stop-color="#D6ECD1"/><stop offset=".817" stop-color="#E5F3E2"/><stop offset=".97" stop-color="#FBFDFA"/><stop offset=".996" stop-color="#fff"/></linearGradient><linearGradient id="prefix__paint1_linear" x1="122.71" y1="101.323" x2="50.889" y2="190.012" gradientUnits="userSpaceOnUse"><stop stop-color="#FFD8A1"/><stop offset=".996" stop-color="#fff"/></linearGradient><linearGradient id="prefix__paint2_linear" x1="196.338" y1="141.631" x2="196.338" y2="188.2" gradientUnits="userSpaceOnUse"><stop stop-color="#C0DDFC"/><stop offset=".186" stop-color="#D3E7FD"/><stop offset=".488" stop-color="#EBF4FE"/><stop offset=".766" stop-color="#FAFCFF"/><stop offset=".996" stop-color="#fff"/></linearGradient><linearGradient id="prefix__paint3_linear" x1="601318" y1="-8079.69" x2="601318" y2="-5636.12" gradientUnits="userSpaceOnUse"><stop stop-color="#FFD8A1"/><stop offset=".996" stop-color="#fff"/></linearGradient><linearGradient id="prefix__paint4_linear" x1="166.154" y1="46.228" x2="166.154" y2="97.837" gradientUnits="userSpaceOnUse"><stop stop-color="#F48B94"/><stop offset=".405" stop-color="#F4A9A6"/><stop offset=".499" stop-color="#FED3B5"/><stop offset=".599" stop-color="#DBECC2"/><stop offset="1" stop-color="#ADDCC8"/></linearGradient><linearGradient id="prefix__paint5_linear" x1="186.957" y1="46.228" x2="186.957" y2="97.837" gradientUnits="userSpaceOnUse"><stop stop-color="#F48B94"/><stop offset=".405" stop-color="#F4A9A6"/><stop offset=".499" stop-color="#FED3B5"/><stop offset=".599" stop-color="#DBECC2"/><stop offset="1" stop-color="#ADDCC8"/></linearGradient><linearGradient id="prefix__paint6_linear" x1="180.826" y1="76.184" x2="180.826" y2="186.43" gradientUnits="userSpaceOnUse"><stop stop-color="#77879D"/><stop offset=".089" stop-color="#A1978E"/><stop offset=".188" stop-color="#C9A780"/><stop offset=".279" stop-color="#E5B275"/><stop offset=".358" stop-color="#F7B96F"/><stop offset=".415" stop-color="#FDBB6D"/><stop offset=".499" stop-color="#FDBB9F"/><stop offset=".599" stop-color="#D1D2D1"/><stop offset="1" stop-color="#FECEAA"/></linearGradient><linearGradient id="prefix__paint7_linear" x1="194.711" y1="76.184" x2="194.711" y2="186.43" gradientUnits="userSpaceOnUse"><stop stop-color="#77879D"/><stop offset=".089" stop-color="#A1978E"/><stop offset=".188" stop-color="#C9A780"/><stop offset=".279" stop-color="#E5B275"/><stop offset=".358" stop-color="#F7B96F"/><stop offset=".415" stop-color="#FDBB6D"/><stop offset=".499" stop-color="#FDBB9F"/><stop offset=".599" stop-color="#D1D2D1"/><stop offset="1" stop-color="#FECEAA"/></linearGradient><linearGradient id="prefix__paint8_linear" x1="178.439" y1="46.228" x2="178.439" y2="97.837" gradientUnits="userSpaceOnUse"><stop stop-color="#F48B94"/><stop offset=".405" stop-color="#F4A9A6"/><stop offset=".499" stop-color="#FED3B5"/><stop offset=".599" stop-color="#DBECC2"/><stop offset="1" stop-color="#ADDCC8"/></linearGradient><linearGradient id="prefix__paint9_linear" x1="72.224" y1="182.931" x2="72.224" y2="73.897" gradientUnits="userSpaceOnUse"><stop stop-color="#D96359"/><stop offset=".322" stop-color="#90979D"/><stop offset=".501" stop-color="#7E9DAE"/><stop offset=".683" stop-color="#B8C1FC"/><stop offset="1" stop-color="#D2D4D4"/></linearGradient><linearGradient id="prefix__paint10_linear" x1="46.805" y1="182.903" x2="46.805" y2="73.537" gradientUnits="userSpaceOnUse"><stop stop-color="#D96359"/><stop offset=".322" stop-color="#90979D"/><stop offset=".501" stop-color="#7E9DAE"/><stop offset=".683" stop-color="#B8C1FC"/><stop offset="1" stop-color="#D2D4D4"/></linearGradient><linearGradient id="prefix__paint11_linear" x1="65.738" y1="182.985" x2="65.738" y2="73.901" gradientUnits="userSpaceOnUse"><stop stop-color="#D96359"/><stop offset=".322" stop-color="#90979D"/><stop offset=".501" stop-color="#7E9DAE"/><stop offset=".683" stop-color="#B8C1FC"/><stop offset="1" stop-color="#D2D4D4"/></linearGradient></defs></svg>