<svg xmlns="http://www.w3.org/2000/svg" version="1.1" xmlns:xlink="http://www.w3.org/1999/xlink" xmlns:svgjs="http://svgjs.com/svgjs" viewBox="0 0 140 140" width="140" height="140"><g transform="matrix(5.833333333333333,0,0,5.833333333333333,0,0)"><path d="M12,0A12,12,0,1,0,24,12,12.014,12.014,0,0,0,12,0Zm0,22A10,10,0,1,1,22,12,10.011,10.011,0,0,1,12,22Z" fill="#000000" stroke="none" stroke-linecap="round" stroke-linejoin="round" stroke-width="0"></path><path d="M19,11H12.414L9.707,8.294A1,1,0,0,0,8.293,9.708l3,3A1,1,0,0,0,12,13h7a1,1,0,0,0,0-2Z" fill="#000000" stroke="none" stroke-linecap="round" stroke-linejoin="round" stroke-width="0"></path><path d="M3.500 12.001 A1.250 1.250 0 1 0 6.000 12.001 A1.250 1.250 0 1 0 3.500 12.001 Z" fill="#000000" stroke="none" stroke-linecap="round" stroke-linejoin="round" stroke-width="0"></path><path d="M10.750 4.751 A1.250 1.250 0 1 0 13.250 4.751 A1.250 1.250 0 1 0 10.750 4.751 Z" fill="#000000" stroke="none" stroke-linecap="round" stroke-linejoin="round" stroke-width="0"></path><path d="M10.750 19.251 A1.250 1.250 0 1 0 13.250 19.251 A1.250 1.250 0 1 0 10.750 19.251 Z" fill="#000000" stroke="none" stroke-linecap="round" stroke-linejoin="round" stroke-width="0"></path></g></svg>