<svg width="173" height="108" viewBox="0 0 173 108" fill="none" xmlns="http://www.w3.org/2000/svg">
<rect y="0.791992" width="102" height="106" rx="13" fill="#0B3EE3"/>
<mask id="mask0_573_5744" style="mask-type:luminance" maskUnits="userSpaceOnUse" x="27" y="32" width="47" height="42">
<path fill-rule="evenodd" clip-rule="evenodd" d="M32.1374 32.5918C34.8642 32.5918 37.0747 34.889 37.0747 37.7226C37.0747 40.5563 34.8642 42.8535 32.1374 42.8535C29.4107 42.8535 27.2002 40.5563 27.2002 37.7226C27.2002 34.889 29.4107 32.5918 32.1374 32.5918ZM73.6104 57.2198C73.6104 66.2876 66.5369 73.6386 58.5636 73.6386C49.0856 73.6386 42.0121 66.2876 42.0121 57.2198C42.0121 48.152 49.0856 40.8011 58.5636 40.8011C66.5369 40.8011 73.6104 48.152 73.6104 57.2198ZM36.0869 52.0892C36.0869 49.8223 34.3186 47.9845 32.1372 47.9845C29.9558 47.9845 28.1874 49.8223 28.1874 52.0892V69.5341C28.1874 71.8011 29.9558 73.6388 32.1372 73.6388C34.3186 73.6388 36.0869 71.8011 36.0869 69.5341V52.0892ZM61.6927 55.4969H63.7961V53.3461H61.7079V50.745H59.4229V59.3985C59.4229 60.7657 59.6045 61.6994 59.9828 62.1996C60.346 62.7164 61.042 62.9665 62.071 62.9665C62.4645 62.9665 63.0546 62.8665 63.8112 62.6831L63.7053 60.6823L62.4039 60.7156C62.1769 60.7156 62.0105 60.6656 61.9046 60.5489C61.7986 60.4322 61.7381 60.2988 61.723 60.1488C61.7079 59.982 61.6927 59.7319 61.6927 59.3484V55.4969ZM54.8071 53.3627V62.7498H57.0921V53.3627H54.8071ZM51.3769 53.1287C51.7763 53.1287 52.1142 53.2685 52.3753 53.548C52.6364 53.8276 52.7593 54.1693 52.7593 54.5886C52.7593 55.008 52.6364 55.3341 52.3753 55.6137C52.1295 55.8622 51.807 56.002 51.3922 56.002C50.9929 56.002 50.655 55.8622 50.3938 55.5826C50.1327 55.3031 49.9945 54.9614 49.9945 54.5576C49.9945 54.1538 50.1327 53.8121 50.3785 53.5325C50.6396 53.253 50.9775 53.1287 51.3769 53.1287Z" fill="white"/>
</mask>
<g mask="url(#mask0_573_5744)">
<rect x="-47.8462" y="-49.502" width="197.489" height="205.234" fill="white"/>
</g>
<path d="M170.566 80.1117L167.889 80.6636C164.736 65.4405 151.458 50.9727 143.823 43.7039C140.601 40.6338 136.64 38.6793 132.372 38.0343C116.103 35.5831 99.1563 41.7186 92.6233 44.4654C90.2644 45.4594 88.9995 47.9732 89.6756 50.3163C89.8993 51.1 90.5906 53.4817 95.7069 53.2253C106.227 52.686 114.88 48.9055 114.969 48.8654L116.078 51.3675C115.707 51.5307 106.891 55.3951 95.8456 55.963C89.8253 56.273 87.7385 53.4771 87.0443 51.0821C85.9857 47.4093 87.9259 43.4791 91.5616 41.9533C98.3051 39.1125 115.826 32.7844 132.772 35.335C137.603 36.0622 142.073 38.2712 145.699 41.73C153.564 49.2222 167.252 64.1684 170.561 80.1198L170.566 80.1117Z" fill="white"/>
<path d="M122.312 65.6096C122.145 65.6453 121.977 65.6744 121.812 65.6887C119.861 65.9106 118.278 64.9146 117.483 62.9605C116.375 60.2345 116.908 56.0324 119.083 50.4867C120.636 46.5135 122.459 43.3072 122.535 43.1722L124.908 44.5302C122.961 47.9378 118.295 57.7132 120.017 61.936C120.431 62.9584 120.98 63.0435 121.505 62.9802C124.215 62.6797 129.075 57.4049 129.779 53.0892L132.474 53.5328C131.634 58.6531 126.443 64.7325 122.307 65.6177L122.312 65.6096Z" fill="white"/>
<path d="M136.077 63.2158C135.004 60.6851 130.71 59.361 129.143 59.0604L129.651 56.3731C129.943 56.4295 136.731 57.7509 138.594 62.146L136.075 63.2092L136.077 63.2158Z" fill="white"/>
<path d="M112.881 66.4052C110.743 66.8628 108.513 66.795 106.904 65.3852C104.832 63.5715 103.583 60.3797 103.808 57.4456C103.99 55.0656 105.095 53.11 106.916 51.9517C107.37 51.6588 107.871 51.4189 108.411 51.2334L109.313 53.8146C108.974 53.9291 108.664 54.0793 108.387 54.2573C107.004 55.1403 106.616 56.593 106.535 57.6515C106.379 59.7324 107.27 62.0645 108.706 63.3225C110.641 65.0187 115.824 62.6867 118.026 61.2861L119.484 63.5945C118.967 63.9218 116.02 65.7264 112.879 66.3986L112.881 66.4052Z" fill="white"/>
<path d="M124.061 74.2363C122.537 74.5623 121.007 74.5333 119.467 74.1573C113.433 72.6742 109.61 66.2388 109.447 65.9662L111.807 64.5876C111.84 64.6434 115.225 70.3061 120.129 71.5067C122.275 72.0328 124.37 71.6334 126.514 70.2871C128.671 68.938 129.837 67.6263 129.713 66.6885C129.535 65.3989 126.947 64.0518 125.255 63.5545L126.021 60.9308C126.625 61.1089 131.925 62.7559 132.42 66.3117C132.717 68.4494 131.22 70.5656 127.967 72.6036C126.686 73.4089 125.377 73.9546 124.061 74.2363Z" fill="white"/>
<path d="M143.785 97.6322C132.628 87.7556 127.313 71.7655 127.09 71.0863L129.69 70.2365C129.744 70.3926 135.001 86.2066 145.597 95.5881L143.785 97.6322Z" fill="white"/>
</svg>
