<svg xmlns="http://www.w3.org/2000/svg" version="1.1" xmlns:xlink="http://www.w3.org/1999/xlink" xmlns:svgjs="http://svgjs.com/svgjs" viewBox="0 0 140 140" width="140" height="140"><g transform="matrix(10,0,0,10,0,0)"><path d="M11.5,1.5h-9A2.5,2.5,0,0,0,0,4v6a2.5,2.5,0,0,0,2.5,2.5h9A2.5,2.5,0,0,0,14,10V4A2.5,2.5,0,0,0,11.5,1.5ZM9.571,7.625,6.358,9.41h0A.715.715,0,0,1,5.3,8.785V5.215a.715.715,0,0,1,1.06-.626L9.571,6.375a.715.715,0,0,1,0,1.25Z" fill="#000000" stroke="none" stroke-linecap="round" stroke-linejoin="round" stroke-width="0"></path></g></svg>