<svg width="32" height="32" viewBox="0 0 32 32" fill="none" xmlns="http://www.w3.org/2000/svg"><path d="M19 9.5c0 2.485 2.015 5.5 4.5 5.5S28 11.985 28 9.5a4.5 4.5 0 00-9 0zM16 9.5c0 3.038-2.462 6.5-5.5 6.5S5 12.538 5 9.5a5.5 5.5 0 1111 0zM29.5 18.128a16.304 16.304 0 00-6-1.128c-1.93 0-3.57.334-4.817.715C21.577 19.036 23 21.579 23 24.185V25h9v-3.162a3.965 3.965 0 00-2.5-3.71zM18.205 19.695C16.618 18.922 13.993 18 10.5 18c-3.493 0-6.118.922-7.705 1.695A5.019 5.019 0 000 24.185V28h21v-3.815c0-1.9-1.097-3.663-2.795-4.49z" fill="#05AA76"/></svg>