<svg width="32" height="32" viewBox="0 0 32 32" fill="none" xmlns="http://www.w3.org/2000/svg"><g clip-path="url(#prefix__clip0)" fill="#05AA76"><path d="M32 12h-6v2h6v-2zM29.09 3.134l-5.196 3 1 1.732 5.196-3-1-1.732zM24.893 18.135l-1 1.732 5.196 3 1-1.732-5.196-3zM21.462 1.113a1 1 0 00-1.035.067L10.685 8H5.5a5.5 5.5 0 000 11h5.185l9.742 6.819A.999.999 0 0022 25V2a1 1 0 00-.538-.887z"/><path d="M10.726 21H5.853L9.8 29.746a2.19 2.19 0 104-1.786L10.726 21z"/></g><defs><clipPath id="prefix__clip0"><path fill="#fff" d="M0 0h32v32H0z"/></clipPath></defs></svg>