<svg width="32" height="32" viewBox="0 0 32 32" fill="none" xmlns="http://www.w3.org/2000/svg"><g clip-path="url(#prefix__clip0)"><path d="M28 19.163v-6.326a3.492 3.492 0 10-3.463-5.819l-5.115-2.791a3.5 3.5 0 10-6.843 0L7.463 7.018A3.493 3.493 0 104 12.837v6.326a3.49 3.49 0 103.463 5.819l5.115 2.791a3.5 3.5 0 106.843 0l5.116-2.791A3.493 3.493 0 1028 19.163zm-20.632-7.1l5.246 3.1a3.144 3.144 0 000 1.678l-5.246 3.1A3.483 3.483 0 006 19.163v-6.326c.51-.151.977-.416 1.368-.776v.002zm16.245-1.722l-5.245 3.1A3.484 3.484 0 0017 12.663V6.837a3.493 3.493 0 001.463-.854l5.115 2.79a3.284 3.284 0 00.035 1.566v.002zM15 6.837v5.826a3.485 3.485 0 00-1.367.776l-5.246-3.1c.138-.512.15-1.049.035-1.566l5.115-2.791c.41.4.913.694 1.463.855zM8.387 21.661l5.246-3.1c.39.36.858.625 1.367.776v5.826c-.55.16-1.053.454-1.463.854l-5.115-2.79a3.285 3.285 0 00-.035-1.566zM17 19.337c.51-.151.977-.416 1.368-.776l5.245 3.1a3.284 3.284 0 00-.035 1.566l-5.115 2.791A3.5 3.5 0 0017 25.164v-5.827zm2.387-2.5c.15-.55.15-1.13 0-1.68l5.245-3.1c.39.361.858.628 1.368.78v6.326c-.51.151-.977.416-1.368.776l-5.245-3.102z" fill="#05AA76"/></g><defs><clipPath id="prefix__clip0"><path fill="#fff" d="M0 0h32v32H0z"/></clipPath></defs></svg>
