<svg width="1068" height="600" viewBox="0 0 1068 600" fill="none" xmlns="http://www.w3.org/2000/svg">
<g style="mix-blend-mode:soft-light" opacity="0.6" clip-path="url(#clip0_289_2787)">
<path fill-rule="evenodd" clip-rule="evenodd" d="M1140.81 -54.7341C1414.57 -6.6602 1177.07 180.403 1128.99 454.194C1080.91 727.986 1240.5 984.78 966.704 936.7C692.913 888.621 509.958 627.723 558.038 353.932C606.117 80.141 867.015 -102.813 1140.81 -54.7341Z" stroke="white" stroke-width="0.5" stroke-miterlimit="10"/>
<path fill-rule="evenodd" clip-rule="evenodd" d="M1132.15 -62.6257C1405.95 -14.5463 1163.75 174.561 1115.08 451.752C1066.4 728.943 1229.67 989.252 955.881 941.172C682.09 893.093 493.823 623.074 550.724 351.851C607.876 79.5578 858.358 -110.674 1132.15 -62.5947L1132.15 -62.6257Z" stroke="white" stroke-width="0.5" stroke-miterlimit="10"/>
<path fill-rule="evenodd" clip-rule="evenodd" d="M1123.47 -70.5229C1397.26 -22.4436 1150.42 168.682 1101.14 449.304C1051.86 729.926 1218.82 993.718 945.03 945.639C671.238 897.559 477.665 618.388 543.38 349.765C609.641 78.9434 849.677 -118.571 1123.47 -70.492L1123.47 -70.5229Z" stroke="white" stroke-width="0.5" stroke-miterlimit="10"/>
<path fill-rule="evenodd" clip-rule="evenodd" d="M1114.79 -78.4199C1388.58 -30.3405 1137.07 162.834 1087.2 446.856C1037.32 730.878 1208 998.19 934.176 950.105C660.354 902.02 461.572 613.682 536.041 347.648C611.458 78.2111 840.969 -126.505 1114.79 -78.4199Z" stroke="white" stroke-width="0.5" stroke-miterlimit="10"/>
<path fill-rule="evenodd" clip-rule="evenodd" d="M1106.14 -86.3114C1379.96 -38.2266 1123.76 156.991 1073.29 444.413C1022.82 731.835 1197.18 1002.66 923.355 954.577C649.533 906.493 445.547 608.956 528.728 345.567C613.363 77.526 832.319 -134.396 1106.14 -86.3114Z" stroke="white" stroke-width="0.5" stroke-miterlimit="10"/>
<path fill-rule="evenodd" clip-rule="evenodd" d="M1097.46 -94.2083C1371.28 -46.1235 1110.42 151.112 1059.35 441.965C1008.27 732.818 1186.32 1007.13 912.502 959.044C638.68 910.959 429.589 604.211 521.384 343.481C615.309 76.7845 823.637 -142.293 1097.46 -94.2083Z" stroke="white" stroke-width="0.5" stroke-miterlimit="10"/>
<path fill-rule="evenodd" clip-rule="evenodd" d="M1088.81 -102.1C1362.66 -54.0096 1097.11 145.27 1045.44 439.523C993.767 733.776 1175.53 1011.61 901.679 963.516C627.826 915.426 413.667 599.439 514.075 341.369C617.322 76.023 814.96 -150.221 1088.81 -102.131L1088.81 -102.1Z" stroke="white" stroke-width="0.5" stroke-miterlimit="10"/>
<path fill-rule="evenodd" clip-rule="evenodd" d="M1080.13 -110.028C1353.98 -61.9374 1083.78 139.36 1031.51 437.044C979.23 734.728 1164.69 1016.04 890.832 967.952C616.979 919.862 397.813 594.648 506.731 339.283C619.336 75.2614 806.279 -158.118 1080.13 -110.028Z" stroke="white" stroke-width="0.5" stroke-miterlimit="10"/>
<path fill-rule="evenodd" clip-rule="evenodd" d="M1071.48 -117.919C1345.33 -69.8288 1070.47 133.518 1017.6 434.602C964.725 735.685 1153.86 1020.51 880.011 972.424C606.158 924.334 382.021 589.867 499.418 337.202C621.448 74.4854 797.629 -166.009 1071.48 -117.919Z" stroke="white" stroke-width="0.5" stroke-miterlimit="10"/>
<path fill-rule="evenodd" clip-rule="evenodd" d="M1062.8 -125.816C1336.68 -77.7201 1057.13 127.67 1003.66 432.154C950.187 736.638 1143.04 1024.99 869.157 976.891C595.273 928.795 366.289 585.098 492.073 335.116C623.621 73.7203 788.915 -173.911 1062.8 -125.816Z" stroke="white" stroke-width="0.5" stroke-miterlimit="10"/>
<path fill-rule="evenodd" clip-rule="evenodd" d="M1054.15 -133.707C1328.03 -85.6118 1043.82 121.797 989.742 429.742C935.665 737.688 1132.21 1029.52 858.324 981.424C584.441 933.329 350.589 580.334 484.729 333.03C625.794 72.9548 780.228 -181.778 1054.11 -133.682L1054.15 -133.707Z" stroke="white" stroke-width="0.5" stroke-miterlimit="10"/>
<path fill-rule="evenodd" clip-rule="evenodd" d="M1045.47 -141.605C1319.35 -93.5091 1030.48 115.948 975.803 427.294C921.129 738.64 1121.36 1033.99 847.473 985.891C573.589 937.795 334.958 575.549 477.422 330.918C628.104 72.149 771.584 -189.7 1045.47 -141.605Z" stroke="white" stroke-width="0.5" stroke-miterlimit="10"/>
<path fill-rule="evenodd" clip-rule="evenodd" d="M1036.79 -149.502C1310.7 -101.401 1017.14 110.07 961.862 424.846C906.586 739.622 1110.53 1038.46 836.62 990.357C562.705 942.256 319.381 570.806 470.077 328.831C630.4 71.4053 762.902 -197.597 1036.79 -149.502Z" stroke="white" stroke-width="0.5" stroke-miterlimit="10"/>
<path fill-rule="evenodd" clip-rule="evenodd" d="M1028.14 -157.393C1302.05 -109.292 1003.83 104.227 947.954 422.403C892.08 740.58 1099.71 1042.93 825.798 994.829C551.883 946.728 303.836 566.069 462.733 326.745C632.76 70.6725 754.189 -205.5 1028.1 -157.399L1028.14 -157.393Z" stroke="white" stroke-width="0.5" stroke-miterlimit="10"/>
<path fill-rule="evenodd" clip-rule="evenodd" d="M1019.45 -165.29C1293.4 -117.184 990.49 98.3483 934.014 419.956C877.537 741.563 1088.86 1047.4 814.945 999.296C541.03 951.195 288.347 561.374 455.42 324.664C635.175 69.9816 745.538 -213.391 1019.45 -165.29Z" stroke="white" stroke-width="0.5" stroke-miterlimit="10"/>
<path fill-rule="evenodd" clip-rule="evenodd" d="M1010.8 -173.182C1284.75 -125.075 977.178 92.5056 920.104 417.513C863.031 742.52 1078.07 1051.87 804.123 1003.77C530.177 955.661 272.889 556.684 448.075 322.578C637.621 69.2958 736.857 -221.288 1010.8 -173.182Z" stroke="white" stroke-width="0.5" stroke-miterlimit="10"/>
<path fill-rule="evenodd" clip-rule="evenodd" d="M1002.12 -181.078C1276.07 -132.972 963.835 86.6582 906.165 415.065C848.494 743.473 1067.22 1056.34 793.27 1008.23C519.325 960.128 257.488 552.036 440.767 320.467C640.129 68.6216 728.181 -229.216 1002.16 -181.104L1002.12 -181.078Z" stroke="white" stroke-width="0.5" stroke-miterlimit="10"/>
<path fill-rule="evenodd" clip-rule="evenodd" d="M993.469 -188.97C1267.45 -140.858 950.528 80.7844 892.255 412.623C833.982 744.461 1056.39 1060.81 782.448 1012.71C508.502 964.6 242.085 547.387 433.422 318.38C642.631 67.9774 719.498 -237.113 993.475 -189.001L993.469 -188.97Z" stroke="white" stroke-width="0.5" stroke-miterlimit="10"/>
<path fill-rule="evenodd" clip-rule="evenodd" d="M984.793 -196.898C1258.77 -148.786 937.191 74.9059 878.321 410.144C819.451 745.382 1045.58 1065.25 771.601 1017.14C497.624 969.03 226.741 542.781 426.078 316.294C645.16 67.3702 710.811 -244.979 984.788 -196.867L984.793 -196.898Z" stroke="white" stroke-width="0.5" stroke-miterlimit="10"/>
<path fill-rule="evenodd" clip-rule="evenodd" d="M976.142 -204.79C1250.12 -156.678 923.884 69.0322 864.412 407.701C804.939 746.37 1034.76 1069.73 760.779 1021.61C486.802 973.502 211.39 538.205 418.765 314.213C647.775 66.8096 702.13 -252.876 976.137 -204.759L976.142 -204.79Z" stroke="white" stroke-width="0.5" stroke-miterlimit="10"/>
<path fill-rule="evenodd" clip-rule="evenodd" d="M967.461 -212.686C1241.47 -164.569 910.572 63.1901 850.503 405.259C790.434 747.328 1023.93 1074.2 749.926 1026.08C475.919 977.964 196.101 533.641 411.426 312.096C650.391 66.2497 693.454 -260.804 967.461 -212.686Z" stroke="white" stroke-width="0.5" stroke-miterlimit="10"/>
<path fill-rule="evenodd" clip-rule="evenodd" d="M958.779 -220.583C1232.79 -172.466 897.229 57.3421 836.557 402.842C775.885 748.342 1013.1 1078.73 739.062 1030.61C465.024 982.487 180.802 529.138 404.113 310.015C653.026 65.7565 684.803 -268.695 958.81 -220.578L958.779 -220.583Z" stroke="white" stroke-width="0.5" stroke-miterlimit="10"/>
<path fill-rule="evenodd" clip-rule="evenodd" d="M950.129 -228.475C1224.17 -180.352 883.923 51.4684 822.649 400.399C761.375 749.33 1002.28 1083.2 728.241 1035.08C454.203 986.959 165.534 524.64 396.769 307.929C655.657 65.2941 676.091 -276.598 950.129 -228.475Z" stroke="white" stroke-width="0.5" stroke-miterlimit="10"/>
<path fill-rule="evenodd" clip-rule="evenodd" d="M941.447 -236.372C1215.49 -188.249 870.58 45.6206 808.708 397.951C746.837 750.282 991.426 1087.67 717.388 1039.55C443.349 991.425 150.259 520.174 389.424 305.843C658.312 64.8684 667.408 -284.495 941.447 -236.372Z" stroke="white" stroke-width="0.5" stroke-miterlimit="10"/>
<path fill-rule="evenodd" clip-rule="evenodd" d="M932.796 -244.264C1206.83 -196.141 857.273 39.7472 794.8 395.509C732.326 751.27 980.636 1092.15 706.566 1044.02C432.497 995.892 135.01 515.744 382.111 303.762C660.993 64.4789 658.758 -292.386 932.796 -244.264Z" stroke="white" stroke-width="0.5" stroke-miterlimit="10"/>
<path fill-rule="evenodd" clip-rule="evenodd" d="M924.115 -252.161C1198.18 -204.032 843.931 33.8993 780.86 393.061C717.789 752.223 969.783 1096.61 695.714 1048.49C421.644 1000.36 119.757 511.345 374.773 301.645C663.675 64.0895 650.051 -300.32 924.12 -252.191L924.115 -252.161Z" stroke="white" stroke-width="0.5" stroke-miterlimit="10"/>
<path fill-rule="evenodd" clip-rule="evenodd" d="M915.464 -260.052C1189.53 -211.924 830.624 28.0261 766.951 390.619C703.278 753.211 958.961 1101.09 684.892 1052.96C410.823 1004.83 104.534 506.951 367.428 299.559C666.381 63.7366 641.364 -308.185 915.433 -260.057L915.464 -260.052Z" stroke="white" stroke-width="0.5" stroke-miterlimit="10"/>
<path fill-rule="evenodd" clip-rule="evenodd" d="M906.783 -267.949C1180.85 -219.821 817.282 22.1781 753.011 388.171C688.741 754.163 948.139 1105.56 674.039 1057.43C399.939 1009.29 89.2994 502.619 360.115 297.478C669.108 63.4506 632.713 -316.077 906.783 -267.949Z" stroke="white" stroke-width="0.5" stroke-miterlimit="10"/>
<path fill-rule="evenodd" clip-rule="evenodd" d="M898.101 -275.846C1172.2 -227.712 803.939 16.33 739.071 385.722C674.204 755.115 937.286 1110.03 663.186 1061.89C389.086 1013.76 74.0653 498.287 352.771 295.391C671.803 63.1591 624.032 -323.974 898.101 -275.846Z" stroke="white" stroke-width="0.5" stroke-miterlimit="10"/>
<path fill-rule="evenodd" clip-rule="evenodd" d="M889.456 -283.768C1163.56 -235.635 790.638 10.4259 725.168 383.249C659.698 756.073 926.47 1114.47 652.37 1066.33C378.27 1018.2 58.8314 493.955 345.457 293.311C674.519 62.9352 615.35 -331.871 889.45 -283.738L889.456 -283.768Z" stroke="white" stroke-width="0.5" stroke-miterlimit="10"/>
<path fill-rule="evenodd" clip-rule="evenodd" d="M880.773 -291.665C1154.9 -243.526 777.294 4.57783 711.227 380.801C645.16 757.025 915.642 1118.97 641.511 1070.83C367.38 1022.69 43.5857 489.685 338.118 291.193C677.24 62.6801 606.673 -339.799 880.773 -291.665Z" stroke="white" stroke-width="0.5" stroke-miterlimit="10"/>
<path fill-rule="evenodd" clip-rule="evenodd" d="M872.123 -299.557C1146.25 -251.418 763.988 -1.29559 697.318 378.359C630.649 758.013 904.82 1123.44 630.689 1075.3C356.558 1027.16 28.3411 485.414 330.774 289.107C679.919 62.4815 597.992 -347.696 872.092 -299.562L872.123 -299.557Z" stroke="white" stroke-width="0.5" stroke-miterlimit="10"/>
<path fill-rule="evenodd" clip-rule="evenodd" d="M863.441 -307.454C1137.57 -259.315 750.645 -7.14375 683.373 375.941C616.1 759.027 893.998 1127.91 619.836 1079.77C345.674 1031.62 13.1215 481.18 323.46 287.026C682.655 62.3245 589.31 -355.593 863.472 -307.449L863.441 -307.454Z" stroke="white" stroke-width="0.5" stroke-miterlimit="10"/>
<path fill-rule="evenodd" clip-rule="evenodd" d="M854.791 -315.346C1128.95 -267.201 737.333 -12.986 669.464 373.499C601.595 759.984 883.146 1132.38 609.015 1084.24C334.884 1036.1 -2.1283 476.941 316.117 284.94C685.361 62.1626 580.629 -363.49 854.791 -315.346Z" stroke="white" stroke-width="0.5" stroke-miterlimit="10"/>
<path fill-rule="evenodd" clip-rule="evenodd" d="M846.109 -323.242C1120.27 -275.098 723.996 -18.8647 655.524 371.051C587.052 760.967 872.324 1136.85 598.162 1088.71C324 1040.56 -17.3843 472.733 308.777 282.823C688.06 62.0313 571.952 -371.418 846.114 -323.273L846.109 -323.242Z" stroke="white" stroke-width="0.5" stroke-miterlimit="10"/>
<path fill-rule="evenodd" clip-rule="evenodd" d="M837.458 -331.134C1111.62 -282.99 710.683 -24.7074 641.615 368.609C572.546 761.925 861.502 1141.32 587.34 1093.18C313.178 1045.04 -32.6405 468.524 301.464 280.742C690.759 61.8997 563.265 -379.284 837.458 -331.134Z" stroke="white" stroke-width="0.5" stroke-miterlimit="10"/>
<path fill-rule="evenodd" clip-rule="evenodd" d="M828.776 -339.031C1102.97 -290.881 697.346 -30.586 627.675 366.161C558.003 762.908 850.674 1145.83 576.481 1097.68C302.288 1049.53 -47.9017 464.347 294.119 278.656C693.447 61.8304 554.583 -387.181 828.776 -339.031Z" stroke="white" stroke-width="0.5" stroke-miterlimit="10"/>
<path fill-rule="evenodd" clip-rule="evenodd" d="M820.095 -346.928C1094.29 -298.778 684.004 -36.4339 613.735 363.713C543.467 763.86 839.853 1150.3 565.629 1102.14C291.405 1053.99 -63.1675 460.201 286.807 276.575C696.168 61.7663 545.933 -395.072 820.126 -346.922L820.095 -346.928Z" stroke="white" stroke-width="0.5" stroke-miterlimit="10"/>
<path fill-rule="evenodd" clip-rule="evenodd" d="M811.444 -354.82C1085.64 -306.67 670.697 -42.3074 599.826 361.27C528.955 764.848 829 1154.77 554.807 1106.62C280.614 1058.47 -78.4345 456.054 279.462 274.489C698.82 61.7222 537.22 -402.975 811.444 -354.82Z" stroke="white" stroke-width="0.5" stroke-miterlimit="10"/>
<path fill-rule="evenodd" clip-rule="evenodd" d="M802.763 -362.716C1076.99 -314.561 657.354 -48.1553 585.887 358.822C514.419 765.8 818.179 1159.24 543.955 1111.08C269.731 1062.93 -93.7006 451.907 272.124 272.372C701.509 61.6527 528.544 -410.903 802.768 -362.747L802.763 -362.716Z" stroke="white" stroke-width="0.5" stroke-miterlimit="10"/>
<path fill-rule="evenodd" clip-rule="evenodd" d="M794.117 -370.639C1068.34 -322.483 644.048 -54.0287 571.983 356.349C499.918 766.727 807.357 1163.71 533.133 1115.55C258.909 1067.4 -108.816 448.17 264.811 270.291C704.4 62.0648 519.893 -418.794 794.117 -370.639Z" stroke="white" stroke-width="0.5" stroke-miterlimit="10"/>
<path fill-rule="evenodd" clip-rule="evenodd" d="M785.435 -378.536C1059.69 -330.375 630.71 -59.9076 558.043 353.901C485.375 767.71 796.535 1168.18 522.28 1120.02C248.025 1071.86 -124.276 443.671 257.466 268.204C706.864 61.6372 511.181 -426.697 785.435 -378.536Z" stroke="white" stroke-width="0.5" stroke-miterlimit="10"/>
</g>
<defs>
<clipPath id="clip0_289_2787">
<rect width="1523.06" height="1083.96" fill="white" transform="translate(0 1029.1) rotate(-80.0401)"/>
</clipPath>
</defs>
</svg>
