<svg width="30" height="19" viewBox="0 0 30 19" fill="none" xmlns="http://www.w3.org/2000/svg">
<path d="M20.3333 8.16699C22.5466 8.16699 24.3199 6.38033 24.3199 4.16699C24.3199 1.95366 22.5466 0.166992 20.3333 0.166992C18.1199 0.166992 16.3333 1.95366 16.3333 4.16699C16.3333 6.38033 18.1199 8.16699 20.3333 8.16699ZM9.66658 8.16699C11.8799 8.16699 13.6533 6.38033 13.6533 4.16699C13.6533 1.95366 11.8799 0.166992 9.66658 0.166992C7.45325 0.166992 5.66658 1.95366 5.66658 4.16699C5.66658 6.38033 7.45325 8.16699 9.66658 8.16699ZM9.66658 10.8337C6.55992 10.8337 0.333252 12.3937 0.333252 15.5003V18.8337H18.9999V15.5003C18.9999 12.3937 12.7733 10.8337 9.66658 10.8337ZM20.3333 10.8337C19.9466 10.8337 19.5066 10.8603 19.0399 10.9003C20.5866 12.0203 21.6666 13.527 21.6666 15.5003V18.8337H29.6666V15.5003C29.6666 12.3937 23.4399 10.8337 20.3333 10.8337Z" fill="#0B3EE3"/>
</svg>
