<svg width="795" height="600" viewBox="0 0 795 600" fill="none" xmlns="http://www.w3.org/2000/svg">
<g style="mix-blend-mode:overlay" opacity="0.8" clip-path="url(#clip0_295_7223)">
<path d="M878.71 584.921L590.937 659.291L665.307 947.064L953.08 872.695L878.71 584.921Z" stroke="white" stroke-width="0.42" stroke-miterlimit="10"/>
<path d="M863.076 568.994L574.952 661.944L667.902 950.068L956.026 857.117L863.076 568.994Z" stroke="white" stroke-width="0.42" stroke-miterlimit="10"/>
<path d="M847.458 553.02L558.987 664.562L670.53 953.033L959.001 841.49L847.458 553.02Z" stroke="white" stroke-width="0.42" stroke-miterlimit="10"/>
<path d="M831.852 536.961L543.044 667.12L673.203 955.928L962.011 825.769L831.852 536.961Z" stroke="white" stroke-width="0.42" stroke-miterlimit="10"/>
<path d="M816.218 521.046L527.057 669.782L675.793 958.943L964.954 810.207L816.218 521.046Z" stroke="white" stroke-width="0.42" stroke-miterlimit="10"/>
<path d="M800.598 505.018L511.101 672.361L678.444 961.859L967.942 794.515L800.598 505.018Z" stroke="white" stroke-width="0.42" stroke-miterlimit="10"/>
<path d="M784.971 489.051L495.126 674.985L681.06 964.83L970.906 778.896L784.971 489.051Z" stroke="white" stroke-width="0.42" stroke-miterlimit="10"/>
<path d="M769.352 473.197L479.14 677.691L683.635 967.904L973.847 763.409L769.352 473.197Z" stroke="white" stroke-width="0.42" stroke-miterlimit="10"/>
<path d="M753.722 457.161L463.177 680.266L686.282 970.811L976.827 747.706L753.722 457.161Z" stroke="white" stroke-width="0.42" stroke-miterlimit="10"/>
<path d="M738.109 441.233L447.206 682.918L688.89 973.822L979.794 732.137L738.109 441.233Z" stroke="white" stroke-width="0.42" stroke-miterlimit="10"/>
<path d="M722.472 425.188L431.243 685.485L691.54 976.715L982.77 716.417L722.472 425.188Z" stroke="white" stroke-width="0.42" stroke-miterlimit="10"/>
<path d="M706.876 409.321L415.27 688.181L694.13 979.787L985.736 700.927L706.876 409.321Z" stroke="white" stroke-width="0.42" stroke-miterlimit="10"/>
<path d="M691.224 393.256L399.3 690.735L696.779 982.659L988.703 685.18L691.224 393.256Z" stroke="white" stroke-width="0.42" stroke-miterlimit="10"/>
<path d="M675.602 377.298L383.329 693.366L699.398 985.639L991.671 669.571L675.602 377.298Z" stroke="white" stroke-width="0.42" stroke-miterlimit="10"/>
<path d="M660.007 361.399L367.363 696.037L702.001 988.681L994.645 654.043L660.007 361.399Z" stroke="white" stroke-width="0.42" stroke-miterlimit="10"/>
<path d="M644.353 345.356L351.389 698.608L704.642 991.572L997.606 638.319L644.353 345.356Z" stroke="white" stroke-width="0.42" stroke-miterlimit="10"/>
<path d="M628.76 329.445L335.425 701.271L707.252 994.607L1000.59 622.78L628.76 329.445Z" stroke="white" stroke-width="0.42" stroke-miterlimit="10"/>
<path d="M613.125 313.453L319.453 703.877L709.878 997.549L1003.55 607.125L613.125 313.453Z" stroke="white" stroke-width="0.42" stroke-miterlimit="10"/>
<path d="M597.501 297.478L303.482 706.497L712.501 1000.52L1006.52 591.496L597.501 297.478Z" stroke="white" stroke-width="0.42" stroke-miterlimit="10"/>
<path d="M581.847 281.462L287.508 709.088L715.134 1003.43L1009.47 575.801L581.847 281.462Z" stroke="white" stroke-width="0.42" stroke-miterlimit="10"/>
<path d="M566.216 265.477L271.538 711.701L717.763 1006.38L1012.44 560.155L566.216 265.477Z" stroke="white" stroke-width="0.42" stroke-miterlimit="10"/>
<path d="M550.655 249.599L255.581 714.382L720.364 1009.46L1015.44 544.673L550.655 249.599Z" stroke="white" stroke-width="0.42" stroke-miterlimit="10"/>
<path d="M535.013 233.604L239.606 716.988L722.991 1012.39L1018.4 529.011L535.013 233.604Z" stroke="white" stroke-width="0.42" stroke-miterlimit="10"/>
<path d="M519.435 217.693L223.644 719.646L725.596 1015.44L1021.39 513.484L519.435 217.693Z" stroke="white" stroke-width="0.42" stroke-miterlimit="10"/>
<path d="M503.753 201.647L207.665 722.222L728.239 1018.31L1024.33 497.735L503.753 201.647Z" stroke="white" stroke-width="0.42" stroke-miterlimit="10"/>
<path d="M488.106 185.652L191.691 724.83L730.869 1021.25L1027.28 482.068L488.106 185.652Z" stroke="white" stroke-width="0.42" stroke-miterlimit="10"/>
<path d="M472.538 169.742L175.73 727.486L733.474 1024.29L1030.28 466.55L472.538 169.742Z" stroke="white" stroke-width="0.42" stroke-miterlimit="10"/>
<path d="M456.853 153.712L159.752 730.074L736.115 1027.18L1033.22 450.812L456.853 153.712Z" stroke="white" stroke-width="0.42" stroke-miterlimit="10"/>
<path d="M441.321 137.825L143.798 732.742L738.715 1030.26L1036.24 435.348L441.321 137.825Z" stroke="white" stroke-width="0.42" stroke-miterlimit="10"/>
<path d="M425.6 121.773L127.81 735.321L741.358 1033.11L1039.15 419.564L425.6 121.773Z" stroke="white" stroke-width="0.42" stroke-miterlimit="10"/>
<path d="M409.98 105.804L111.843 737.943L743.983 1036.08L1042.12 403.94L409.98 105.804Z" stroke="white" stroke-width="0.42" stroke-miterlimit="10"/>
<path d="M394.352 89.8354L95.874 740.566L746.605 1039.04L1045.08 388.313L394.352 89.8354Z" stroke="white" stroke-width="0.42" stroke-miterlimit="10"/>
<path d="M378.745 73.8826L79.9062 743.198L749.222 1042.04L1048.06 372.721L378.745 73.8826Z" stroke="white" stroke-width="0.42" stroke-miterlimit="10"/>
<path d="M363.187 57.9555L63.9438 745.84L751.828 1045.08L1051.07 357.199L363.187 57.9555Z" stroke="white" stroke-width="0.42" stroke-miterlimit="10"/>
<path d="M347.567 41.9867L47.9766 748.463L754.453 1048.05L1054.04 341.577L347.567 41.9867Z" stroke="white" stroke-width="0.42" stroke-miterlimit="10"/>
<path d="M331.897 25.9855L32.002 751.07L757.087 1050.97L1056.98 325.881L331.897 25.9855Z" stroke="white" stroke-width="0.42" stroke-miterlimit="10"/>
<path d="M316.343 10.057L16.0391 753.709L759.691 1054.01L1059.99 310.361L316.343 10.057Z" stroke="white" stroke-width="0.42" stroke-miterlimit="10"/>
<path d="M300.637 -5.95602L0.0625 756.316L762.335 1056.89L1062.91 294.618L300.637 -5.95602Z" stroke="white" stroke-width="0.42" stroke-miterlimit="10"/>
</g>
<defs>
<clipPath id="clip0_295_7223">
<rect width="1063" height="1063" fill="white" transform="translate(0 -6)"/>
</clipPath>
</defs>
</svg>
