<svg width="75" height="25" viewBox="0 0 75 25" fill="none" xmlns="http://www.w3.org/2000/svg">
<path fill-rule="evenodd" clip-rule="evenodd" d="M8.50075 9.08271C9.44153 9.1593 10.4607 9.24226 11.4508 9.54981C13.94 10.3239 15.4339 12.2719 15.4339 15.025C15.4339 18.8653 12.5848 21.6748 8.24258 21.6748C4.0663 21.6748 0.968262 19.038 0.968262 15.1392H4.26298C4.26298 17.0886 5.97799 18.3781 8.30116 18.3781C10.7073 18.3781 12.1455 17.0323 12.1455 15.2253C12.1455 13.964 11.3992 13.1906 10.4305 12.8176C9.70934 12.5389 8.79293 12.4553 7.8291 12.3673C6.90802 12.2833 5.94364 12.1952 5.06503 11.9293C2.52077 11.1552 1.13774 9.11974 1.13774 6.54006C1.13774 2.84292 3.98679 0.120117 8.10797 0.120117C12.1455 0.120117 15.1326 2.67089 15.1326 6.36875H11.8142C11.7305 4.59138 10.2373 3.4161 8.08008 3.4161C5.86361 3.4161 4.45338 4.7063 4.45338 6.36875C4.45338 7.45802 5.06155 8.28924 6.11259 8.6904C6.7747 8.94219 7.60196 9.00954 8.50075 9.08271ZM57.6312 0.435267H64.1307C69.9941 0.435267 74.2261 4.99254 74.2261 10.926C74.2261 16.8595 69.9941 21.3597 64.1307 21.3597H62.6507V24.7128L57.8042 19.6828L62.6507 14.6571V18.0059H64.0756C68.058 18.0059 70.907 14.939 70.907 10.926C70.907 6.85593 68.058 3.78908 64.0756 3.78908H60.9496V11.0605L57.6312 14.5415V0.435267ZM18.8897 21.3597H34.2955V18.0059H22.1816V12.5307H29.0124V9.17757H22.1816V3.78835H34.2955V0.435267H18.8897V21.3597ZM41.2923 0.435267L50.668 15.3402V0.435267H53.9592V21.3597H50.668L41.2923 6.45477V21.3597H38.0003V0.435267H41.2923Z" fill="white"/>
</svg>
