<svg width="359" height="238" viewBox="0 0 359 238" fill="none" xmlns="http://www.w3.org/2000/svg">
<path d="M252.998 71.3586L252.894 101.393H230.948V0H253.101H255.586H271.527C284.571 0 291.196 3.52133 291.299 10.564V60.0696C291.299 67.1123 284.985 70.53 272.252 70.53H253.101V71.3586H252.998ZM269.25 11.7032H252.791V58.7232H269.25V11.7032Z" fill="#0073E6"/>
<path d="M18.5297 101.497L18.4262 131.532H0V30.1384H18.5297H20.6001H33.9539C44.9268 30.1384 50.4132 33.6597 50.5167 40.7024V90.208C50.5167 97.2507 45.2373 100.668 34.575 100.668H18.5297V101.497ZM32.1941 41.9452H18.4262V88.9652H32.1941V41.9452V41.9452Z" fill="#0073E6"/>
<path d="M107.245 100.668H72.2555C62.0072 100.668 56.8313 97.1471 56.8313 90.1045L56.9348 69.4944C56.9348 62.5553 62.2143 59.034 72.8766 58.9304H88.9219V41.9452H75.154L75.0505 51.2663H57.0383V40.7024C57.0383 33.7633 62.4213 30.3456 73.1871 30.3456L91.1993 30.1384C101.862 30.1384 107.245 33.6597 107.245 40.5988V100.668ZM75.2575 88.8616H89.1289L89.0254 70.7372H75.2575V88.8616V88.8616Z" fill="#0073E6"/>
<path d="M147.513 100.668H131.364C120.702 100.668 115.422 97.1471 115.422 90.208V40.7024C115.526 33.6597 121.012 30.1384 131.985 30.1384H145.339H147.616H165.939V121.071C165.939 128.114 160.556 131.635 149.894 131.635H131.571C120.909 131.635 115.526 128.114 115.526 121.071V110.611H133.849V119.932H147.616V101.497L147.513 100.668ZM133.745 88.8616H147.513V41.9452H133.745V88.8616Z" fill="#0073E6"/>
<path d="M222.667 90.1045C222.563 97.1471 217.077 100.565 206.104 100.565H188.299C177.533 100.565 172.15 97.0435 172.15 90.1045V40.5988C172.15 33.5562 177.533 30.1384 188.299 30.1384H206.622C217.284 30.1384 222.563 33.6597 222.563 40.5988V90.1045H222.667ZM204.448 41.9452H190.576V88.9652H204.344L204.448 41.9452Z" fill="#0073E6"/>
<path d="M358.896 11.0818C358.896 4.03914 352.582 0.621387 339.849 0.621387H317.903C305.067 0.621387 298.649 4.14271 298.649 11.0818V101.6H320.595V70.6336H337.158V96.5256C337.158 162.809 283.639 216.354 217.388 216.354C178.982 216.354 144.718 198.23 122.772 170.163L133.745 161.774L89.6465 132.05L91.6133 194.708L105.692 183.523C131.571 216.665 172.047 238 217.388 238C295.647 238 359 174.513 359 96.3185L358.896 11.0818ZM337.054 58.8268H320.491V12.221H337.054V58.8268Z" fill="#0073E6"/>
</svg>
